%FSLAX44Y44*%
%MOMM*%
G71*
G01*
G75*
G04 Layer_Color=8388736*
%ADD10R,0.9000X0.7000*%
%ADD11R,0.6500X1.1000*%
%ADD12O,0.6000X2.2000*%
%ADD13R,0.8000X0.9000*%
%ADD14R,0.7000X0.9000*%
%ADD15O,0.6000X1.9000*%
%ADD16R,0.6000X1.1500*%
%ADD17R,1.1500X0.6000*%
%ADD18R,0.9000X0.8000*%
G04:AMPARAMS|DCode=19|XSize=1.9mm|YSize=3.2mm|CornerRadius=0mm|HoleSize=0mm|Usage=FLASHONLY|Rotation=90.000|XOffset=0mm|YOffset=0mm|HoleType=Round|Shape=Octagon|*
%AMOCTAGOND19*
4,1,8,-1.6000,-0.4750,-1.6000,0.4750,-1.1250,0.9500,1.1250,0.9500,1.6000,0.4750,1.6000,-0.4750,1.1250,-0.9500,-1.1250,-0.9500,-1.6000,-0.4750,0.0*
%
%ADD19OCTAGOND19*%

%ADD20R,1.4000X0.6000*%
%ADD21R,1.8000X0.6000*%
%ADD22R,1.2000X1.4000*%
%ADD23C,0.5000*%
%ADD24C,0.2500*%
%ADD25C,1.5000*%
%ADD26R,1.5000X1.5000*%
%ADD27O,4.0000X5.0000*%
%ADD28O,4.5000X5.5000*%
%ADD29C,1.7000*%
%ADD30R,1.7000X1.7000*%
%ADD31C,6.2000*%
%ADD32C,1.2000*%
%ADD33C,0.2000*%
%ADD34C,0.3000*%
%ADD35R,1.1000X0.9000*%
%ADD36R,0.8500X1.3000*%
%ADD37O,0.8000X2.4000*%
%ADD38R,1.0000X1.1000*%
%ADD39R,0.9000X1.1000*%
%ADD40O,0.8000X2.1000*%
%ADD41R,0.8000X1.3500*%
%ADD42R,1.3500X0.8000*%
%ADD43R,1.1000X1.0000*%
G04:AMPARAMS|DCode=44|XSize=2.1mm|YSize=3.4mm|CornerRadius=0mm|HoleSize=0mm|Usage=FLASHONLY|Rotation=90.000|XOffset=0mm|YOffset=0mm|HoleType=Round|Shape=Octagon|*
%AMOCTAGOND44*
4,1,8,-1.7000,-0.5250,-1.7000,0.5250,-1.1750,1.0500,1.1750,1.0500,1.7000,0.5250,1.7000,-0.5250,1.1750,-1.0500,-1.1750,-1.0500,-1.7000,-0.5250,0.0*
%
%ADD44OCTAGOND44*%

%ADD45R,1.6000X0.8000*%
%ADD46R,2.0000X0.8000*%
%ADD47R,1.4000X1.6000*%
%ADD48R,1.7000X1.7000*%
%ADD49O,4.2000X5.2000*%
%ADD50O,4.7000X5.7000*%
%ADD51C,1.9000*%
%ADD52R,1.9000X1.9000*%
%ADD53C,6.4000*%
%ADD54C,1.4000*%
D29*
X916300Y772700D02*
D03*
Y747300D02*
D03*
X890900Y772700D02*
D03*
Y747300D02*
D03*
X865500Y772700D02*
D03*
Y747300D02*
D03*
X840100Y772700D02*
D03*
Y747300D02*
D03*
X814700Y772700D02*
D03*
Y747300D02*
D03*
X789300Y772700D02*
D03*
Y747300D02*
D03*
X763900Y772700D02*
D03*
Y747300D02*
D03*
X738500Y772700D02*
D03*
Y747300D02*
D03*
X713100Y772700D02*
D03*
Y747300D02*
D03*
X687700Y772700D02*
D03*
Y747300D02*
D03*
X662300Y772700D02*
D03*
Y747300D02*
D03*
X636900Y772700D02*
D03*
Y747300D02*
D03*
X611500Y772700D02*
D03*
Y747300D02*
D03*
X586100Y772700D02*
D03*
Y747300D02*
D03*
X560700Y772700D02*
D03*
Y747300D02*
D03*
X535300Y772700D02*
D03*
Y747300D02*
D03*
X509900Y772700D02*
D03*
Y747300D02*
D03*
X484500Y772700D02*
D03*
Y747300D02*
D03*
X459100Y772700D02*
D03*
Y747300D02*
D03*
X433700Y772700D02*
D03*
X819700Y262300D02*
D03*
X845100D02*
D03*
X870500D02*
D03*
X718100D02*
D03*
X743500D02*
D03*
X768900D02*
D03*
X616500D02*
D03*
X641900D02*
D03*
X667300D02*
D03*
X514900D02*
D03*
X540300D02*
D03*
X565700D02*
D03*
D35*
X798000Y317500D02*
D03*
Y332500D02*
D03*
X696000Y317500D02*
D03*
Y332500D02*
D03*
X594000Y317500D02*
D03*
Y332500D02*
D03*
X493000Y317500D02*
D03*
Y332500D02*
D03*
X787000Y541500D02*
D03*
Y556500D02*
D03*
X787000Y586500D02*
D03*
Y571500D02*
D03*
D36*
X821500Y545000D02*
D03*
X812000D02*
D03*
X802500D02*
D03*
Y521000D02*
D03*
X812000D02*
D03*
X821500D02*
D03*
Y586000D02*
D03*
X812000D02*
D03*
X802500D02*
D03*
Y562000D02*
D03*
X812000D02*
D03*
X821500D02*
D03*
D37*
X714100Y474000D02*
D03*
X701400D02*
D03*
X688700D02*
D03*
X676000D02*
D03*
X663300D02*
D03*
X650600D02*
D03*
X637900D02*
D03*
X714100Y426000D02*
D03*
X701400D02*
D03*
X688700D02*
D03*
X676000D02*
D03*
X663300D02*
D03*
X650600D02*
D03*
X637900D02*
D03*
X770050Y702000D02*
D03*
X757350D02*
D03*
X744650D02*
D03*
X731950D02*
D03*
X770050Y654000D02*
D03*
X757350D02*
D03*
X744650D02*
D03*
X731950D02*
D03*
D38*
X676000Y404000D02*
D03*
X690000D02*
D03*
X452000Y499000D02*
D03*
X466000D02*
D03*
X731000Y724000D02*
D03*
X745000D02*
D03*
X750000Y590000D02*
D03*
X736000D02*
D03*
X717000Y390000D02*
D03*
X703000D02*
D03*
D39*
X675500Y390000D02*
D03*
X690500D02*
D03*
X690500Y376000D02*
D03*
X675500D02*
D03*
X427500Y558000D02*
D03*
X412500D02*
D03*
X451500Y484000D02*
D03*
X466500D02*
D03*
X412500Y467000D02*
D03*
X427500D02*
D03*
X427500Y537000D02*
D03*
X412500D02*
D03*
X427500Y523000D02*
D03*
X412500D02*
D03*
D40*
X750050Y348500D02*
D03*
X737350D02*
D03*
X724650D02*
D03*
X711950D02*
D03*
X750050Y301500D02*
D03*
X737350D02*
D03*
X724650D02*
D03*
X711950D02*
D03*
X648050Y348500D02*
D03*
X635350D02*
D03*
X622650D02*
D03*
X609950D02*
D03*
X648050Y301500D02*
D03*
X635350D02*
D03*
X622650D02*
D03*
X609950D02*
D03*
X547050Y348500D02*
D03*
X534350D02*
D03*
X521650D02*
D03*
X508950D02*
D03*
X547050Y301500D02*
D03*
X534350D02*
D03*
X521650D02*
D03*
X508950D02*
D03*
X852050Y348500D02*
D03*
X839350D02*
D03*
X826650D02*
D03*
X813950D02*
D03*
X852050Y301500D02*
D03*
X839350D02*
D03*
X826650D02*
D03*
X813950D02*
D03*
D41*
X420000Y425750D02*
D03*
X410500Y448250D02*
D03*
X429500D02*
D03*
D42*
X435250Y499000D02*
D03*
X412750Y489500D02*
D03*
Y508500D02*
D03*
D43*
X705000Y526000D02*
D03*
Y540000D02*
D03*
D44*
X751000Y533000D02*
D03*
D45*
X724000Y518000D02*
D03*
Y548000D02*
D03*
D46*
X726000Y533000D02*
D03*
D47*
X734000Y572000D02*
D03*
X752000D02*
D03*
D48*
X433700Y747300D02*
D03*
X794300Y262300D02*
D03*
X692700D02*
D03*
X591100D02*
D03*
X489500D02*
D03*
D49*
X923000Y562000D02*
D03*
X892500Y611000D02*
D03*
D50*
X863000Y562000D02*
D03*
D51*
X377300Y481900D02*
D03*
Y507300D02*
D03*
Y431100D02*
D03*
Y558100D02*
D03*
Y583500D02*
D03*
D52*
Y532700D02*
D03*
Y456500D02*
D03*
Y608900D02*
D03*
D53*
X965000Y760000D02*
D03*
X385000D02*
D03*
X965000Y270000D02*
D03*
X385000D02*
D03*
D54*
X510999Y670999D02*
D03*
X489999Y643999D02*
D03*
X522559Y659439D02*
D03*
X541999Y649999D02*
D03*
X713999Y505999D02*
D03*
X656999Y529999D02*
D03*
X668999Y519999D02*
D03*
X691999Y640999D02*
D03*
Y609999D02*
D03*
X852000Y374000D02*
D03*
X762000D02*
D03*
X776000Y564000D02*
D03*
X435000Y431000D02*
D03*
X557000Y643000D02*
D03*
X523000Y609000D02*
D03*
X703000Y377000D02*
D03*
X770050Y634050D02*
D03*
X669999Y495999D02*
D03*
X733000Y408000D02*
D03*
X705000Y601000D02*
D03*
X439000Y558000D02*
D03*
M02*
