%FSLAX44Y44*%
%MOMM*%
G71*
G01*
G75*
G04 Layer_Physical_Order=2*
G04 Layer_Color=16711680*
%ADD10R,0.9000X0.7000*%
%ADD11R,0.6500X1.1000*%
%ADD12O,0.6000X2.2000*%
%ADD13R,0.8000X0.9000*%
%ADD14R,0.7000X0.9000*%
%ADD15O,0.6000X1.9000*%
%ADD16R,0.6000X1.1500*%
%ADD17R,1.1500X0.6000*%
%ADD18R,0.9000X0.8000*%
G04:AMPARAMS|DCode=19|XSize=1.9mm|YSize=3.2mm|CornerRadius=0mm|HoleSize=0mm|Usage=FLASHONLY|Rotation=90.000|XOffset=0mm|YOffset=0mm|HoleType=Round|Shape=Octagon|*
%AMOCTAGOND19*
4,1,8,-1.6000,-0.4750,-1.6000,0.4750,-1.1250,0.9500,1.1250,0.9500,1.6000,0.4750,1.6000,-0.4750,1.1250,-0.9500,-1.1250,-0.9500,-1.6000,-0.4750,0.0*
%
%ADD19OCTAGOND19*%

%ADD20R,1.4000X0.6000*%
%ADD21R,1.8000X0.6000*%
%ADD22R,1.2000X1.4000*%
%ADD23C,0.5000*%
%ADD24C,0.2500*%
%ADD25C,1.5000*%
%ADD26R,1.5000X1.5000*%
%ADD27O,4.0000X5.0000*%
%ADD28O,4.5000X5.5000*%
%ADD29C,1.7000*%
%ADD30R,1.7000X1.7000*%
%ADD31C,6.2000*%
%ADD32C,1.2000*%
G36*
X958639Y793439D02*
X954461Y792436D01*
X949517Y790388D01*
X944954Y787592D01*
X940884Y784116D01*
X937408Y780046D01*
X934612Y775483D01*
X932564Y770539D01*
X931315Y765335D01*
X931013Y761500D01*
X965000D01*
Y760000D01*
X966500D01*
Y726013D01*
X970335Y726315D01*
X975539Y727564D01*
X980483Y729612D01*
X985046Y732408D01*
X989116Y735884D01*
X992592Y739954D01*
X993515Y741461D01*
X995922Y740783D01*
Y289217D01*
X993515Y288539D01*
X992592Y290047D01*
X989116Y294116D01*
X985046Y297592D01*
X980483Y300388D01*
X975539Y302436D01*
X970335Y303685D01*
X966500Y303987D01*
Y270000D01*
X965000D01*
Y268500D01*
X931013D01*
X931315Y264665D01*
X932564Y259461D01*
X934612Y254517D01*
X937408Y249953D01*
X940884Y245884D01*
X944954Y242408D01*
X946461Y241485D01*
X945783Y239078D01*
X404217D01*
X403539Y241485D01*
X405047Y242408D01*
X409116Y245884D01*
X412592Y249953D01*
X415388Y254517D01*
X417436Y259461D01*
X418685Y264665D01*
X418987Y268500D01*
X385000D01*
Y270000D01*
X383500D01*
Y303987D01*
X379665Y303685D01*
X374461Y302436D01*
X369517Y300388D01*
X364953Y297592D01*
X360884Y294116D01*
X357408Y290047D01*
X356484Y288539D01*
X354078Y289217D01*
Y293000D01*
X354078Y293000D01*
X354078Y293000D01*
Y293000D01*
Y740783D01*
X356484Y741461D01*
X357408Y739954D01*
X360884Y735884D01*
X364953Y732408D01*
X369517Y729612D01*
X374461Y727564D01*
X379665Y726315D01*
X383500Y726013D01*
Y760000D01*
X385000D01*
Y761500D01*
X418987D01*
X418685Y765335D01*
X417436Y770539D01*
X415388Y775483D01*
X412592Y780046D01*
X409116Y784116D01*
X405047Y787592D01*
X400483Y790388D01*
X395539Y792436D01*
X391361Y793439D01*
X391655Y795922D01*
X958345D01*
X958639Y793439D01*
D02*
G37*
%LPC*%
G36*
X377300Y568691D02*
X374559Y568330D01*
X372005Y567272D01*
X369811Y565589D01*
X368128Y563395D01*
X367070Y560841D01*
X366709Y558100D01*
X367070Y555359D01*
X368128Y552805D01*
X369811Y550611D01*
X372005Y548928D01*
X374559Y547870D01*
X377300Y547509D01*
X380041Y547870D01*
X382595Y548928D01*
X384789Y550611D01*
X386472Y552805D01*
X387530Y555359D01*
X387891Y558100D01*
X387530Y560841D01*
X386472Y563395D01*
X384789Y565589D01*
X382595Y567272D01*
X380041Y568330D01*
X377300Y568691D01*
D02*
G37*
G36*
X437500Y556500D02*
X430120D01*
X430232Y555651D01*
X431138Y553461D01*
X432581Y551581D01*
X434461Y550139D01*
X436651Y549232D01*
X437500Y549120D01*
Y556500D01*
D02*
G37*
G36*
X921500Y560500D02*
X899889D01*
Y557000D01*
X900333Y552491D01*
X901648Y548156D01*
X903784Y544160D01*
X906658Y540658D01*
X910160Y537784D01*
X914156Y535648D01*
X918491Y534333D01*
X921500Y534036D01*
Y560500D01*
D02*
G37*
G36*
X946111D02*
X924500D01*
Y534036D01*
X927509Y534333D01*
X931844Y535648D01*
X935840Y537784D01*
X939342Y540658D01*
X942216Y544160D01*
X944352Y548156D01*
X945667Y552491D01*
X946111Y557000D01*
Y560500D01*
D02*
G37*
G36*
X774500Y562500D02*
X767120D01*
X767232Y561651D01*
X768139Y559461D01*
X769581Y557581D01*
X771461Y556138D01*
X773651Y555232D01*
X774500Y555120D01*
Y562500D01*
D02*
G37*
G36*
X784880D02*
X777500D01*
Y555120D01*
X778350Y555232D01*
X780539Y556138D01*
X782419Y557581D01*
X783861Y559461D01*
X784768Y561651D01*
X784880Y562500D01*
D02*
G37*
G36*
X437500Y566880D02*
X436651Y566768D01*
X434461Y565862D01*
X432581Y564419D01*
X431138Y562539D01*
X430232Y560350D01*
X430120Y559500D01*
X437500D01*
Y566880D01*
D02*
G37*
G36*
X447880Y556500D02*
X440500D01*
Y549120D01*
X441349Y549232D01*
X443539Y550139D01*
X445419Y551581D01*
X446861Y553461D01*
X447768Y555651D01*
X447880Y556500D01*
D02*
G37*
G36*
X387800Y543200D02*
X366800D01*
Y522200D01*
X387800D01*
Y543200D01*
D02*
G37*
G36*
X668499Y494499D02*
X661118D01*
X661230Y493649D01*
X662137Y491460D01*
X663580Y489580D01*
X665460Y488138D01*
X667649Y487231D01*
X668499Y487119D01*
Y494499D01*
D02*
G37*
G36*
X678879D02*
X671499D01*
Y487119D01*
X672348Y487231D01*
X674538Y488138D01*
X676417Y489580D01*
X677860Y491460D01*
X678767Y493649D01*
X678879Y494499D01*
D02*
G37*
G36*
X375800Y480400D02*
X365898D01*
X366096Y478898D01*
X367255Y476100D01*
X369098Y473698D01*
X371500Y471855D01*
X374298Y470696D01*
X375800Y470498D01*
Y480400D01*
D02*
G37*
G36*
Y493302D02*
X374298Y493104D01*
X371500Y491945D01*
X369098Y490102D01*
X367255Y487700D01*
X366096Y484902D01*
X365898Y483400D01*
X375800D01*
Y493302D01*
D02*
G37*
G36*
X671499Y504879D02*
Y497499D01*
X678879D01*
X678767Y498349D01*
X677860Y500538D01*
X676417Y502418D01*
X674538Y503861D01*
X672348Y504767D01*
X671499Y504879D01*
D02*
G37*
G36*
X656999Y538068D02*
X654910Y537793D01*
X652964Y536987D01*
X651293Y535705D01*
X650011Y534034D01*
X649205Y532087D01*
X648930Y529999D01*
X649205Y527910D01*
X650011Y525964D01*
X651293Y524293D01*
X652964Y523011D01*
X654910Y522205D01*
X656999Y521930D01*
X659087Y522205D01*
X659087Y522205D01*
X659087Y522205D01*
X659369Y522189D01*
X660965Y520265D01*
X660930Y519999D01*
X661205Y517910D01*
X662011Y515964D01*
X663293Y514293D01*
X664964Y513011D01*
X666910Y512205D01*
X668999Y511930D01*
X671087Y512205D01*
X673033Y513011D01*
X674704Y514293D01*
X675987Y515964D01*
X676285Y516685D01*
X682444D01*
X729686Y469443D01*
Y415286D01*
X728966Y414988D01*
X727294Y413706D01*
X726012Y412034D01*
X725206Y410088D01*
X724931Y408000D01*
X725206Y405912D01*
X726012Y403965D01*
X727294Y402294D01*
X728966Y401012D01*
X730912Y400206D01*
X733000Y399931D01*
X735088Y400206D01*
X737035Y401012D01*
X738706Y402294D01*
X739988Y403965D01*
X740794Y405912D01*
X741069Y408000D01*
X740794Y410088D01*
X739988Y412034D01*
X738706Y413706D01*
X737035Y414988D01*
X736314Y415286D01*
Y470816D01*
X736103Y471874D01*
X736061Y472084D01*
X735343Y473159D01*
X712802Y495700D01*
X713908Y497942D01*
X713999Y497930D01*
X716087Y498205D01*
X718033Y499011D01*
X719704Y500293D01*
X720986Y501964D01*
X721793Y503911D01*
X722068Y505999D01*
X721793Y508087D01*
X720986Y510033D01*
X719704Y511705D01*
X718033Y512987D01*
X716087Y513793D01*
X713999Y514068D01*
X711910Y513793D01*
X711189Y513494D01*
X692202Y532482D01*
X691127Y533200D01*
X690916Y533242D01*
X689859Y533453D01*
X664227D01*
X663987Y534034D01*
X662704Y535705D01*
X661033Y536987D01*
X659087Y537793D01*
X656999Y538068D01*
D02*
G37*
G36*
X377300Y517891D02*
X374559Y517530D01*
X372005Y516472D01*
X369811Y514789D01*
X368128Y512595D01*
X367070Y510041D01*
X366709Y507300D01*
X367070Y504559D01*
X368128Y502005D01*
X369811Y499811D01*
X372005Y498128D01*
X374559Y497070D01*
X377300Y496709D01*
X380041Y497070D01*
X382595Y498128D01*
X384789Y499811D01*
X386472Y502005D01*
X387530Y504559D01*
X387891Y507300D01*
X387530Y510041D01*
X386472Y512595D01*
X384789Y514789D01*
X382595Y516472D01*
X380041Y517530D01*
X377300Y517891D01*
D02*
G37*
G36*
X668499Y504879D02*
X667649Y504767D01*
X665460Y503861D01*
X663580Y502418D01*
X662137Y500538D01*
X661230Y498349D01*
X661118Y497499D01*
X668499D01*
Y504879D01*
D02*
G37*
G36*
X706500Y609880D02*
Y602500D01*
X713880D01*
X713768Y603349D01*
X712861Y605539D01*
X711419Y607419D01*
X709539Y608862D01*
X707349Y609768D01*
X706500Y609880D01*
D02*
G37*
G36*
X375800Y620400D02*
X365800D01*
Y610400D01*
X375800D01*
Y620400D01*
D02*
G37*
G36*
Y607400D02*
X365800D01*
Y597400D01*
X375800D01*
Y607400D01*
D02*
G37*
G36*
X388800D02*
X378800D01*
Y597400D01*
X388800D01*
Y607400D01*
D02*
G37*
G36*
X894000Y638964D02*
Y612500D01*
X915611D01*
Y616000D01*
X915167Y620509D01*
X913852Y624844D01*
X911716Y628840D01*
X908842Y632342D01*
X905340Y635216D01*
X901344Y637352D01*
X897009Y638667D01*
X894000Y638964D01*
D02*
G37*
G36*
X768550Y632550D02*
X761170D01*
X761282Y631701D01*
X762188Y629511D01*
X763631Y627631D01*
X765511Y626189D01*
X767701Y625282D01*
X768550Y625170D01*
Y632550D01*
D02*
G37*
G36*
X388800Y620400D02*
X378800D01*
Y610400D01*
X388800D01*
Y620400D01*
D02*
G37*
G36*
X891000Y638964D02*
X887991Y638667D01*
X883656Y637352D01*
X879660Y635216D01*
X876158Y632342D01*
X873284Y628840D01*
X871148Y624844D01*
X869833Y620509D01*
X869389Y616000D01*
Y612500D01*
X891000D01*
Y638964D01*
D02*
G37*
G36*
X713880Y599500D02*
X706500D01*
Y592120D01*
X707349Y592232D01*
X709539Y593139D01*
X711419Y594581D01*
X712861Y596461D01*
X713768Y598651D01*
X713880Y599500D01*
D02*
G37*
G36*
X924500Y589963D02*
Y563500D01*
X946111D01*
Y567000D01*
X945667Y571509D01*
X944352Y575844D01*
X942216Y579840D01*
X939342Y583342D01*
X935840Y586216D01*
X931844Y588352D01*
X927509Y589667D01*
X924500Y589963D01*
D02*
G37*
G36*
X774500Y572880D02*
X773651Y572768D01*
X771461Y571861D01*
X769581Y570419D01*
X768139Y568539D01*
X767232Y566349D01*
X767120Y565500D01*
X774500D01*
Y572880D01*
D02*
G37*
G36*
X440500Y566880D02*
Y559500D01*
X447880D01*
X447768Y560350D01*
X446861Y562539D01*
X445419Y564419D01*
X443539Y565862D01*
X441349Y566768D01*
X440500Y566880D01*
D02*
G37*
G36*
X921500Y589963D02*
X918491Y589667D01*
X914156Y588352D01*
X910160Y586216D01*
X906658Y583342D01*
X903784Y579840D01*
X901648Y575844D01*
X900333Y571509D01*
X899889Y567000D01*
Y563500D01*
X921500D01*
Y589963D01*
D02*
G37*
G36*
X891000Y609500D02*
X869389D01*
Y606000D01*
X869833Y601491D01*
X871148Y597156D01*
X873284Y593160D01*
X874887Y591207D01*
X873301Y589274D01*
X872421Y589744D01*
X867803Y591146D01*
X863000Y591618D01*
X858197Y591146D01*
X853579Y589744D01*
X849323Y587470D01*
X845592Y584408D01*
X842530Y580677D01*
X840255Y576421D01*
X838855Y571803D01*
X838382Y567000D01*
Y557000D01*
X838855Y552197D01*
X840255Y547579D01*
X842530Y543323D01*
X845592Y539592D01*
X849323Y536530D01*
X853579Y534255D01*
X858197Y532854D01*
X863000Y532382D01*
X867803Y532854D01*
X872421Y534255D01*
X876677Y536530D01*
X880408Y539592D01*
X883470Y543323D01*
X885745Y547579D01*
X887145Y552197D01*
X887618Y557000D01*
Y567000D01*
X887145Y571803D01*
X885745Y576421D01*
X883470Y580677D01*
X881584Y582975D01*
X883170Y584908D01*
X883656Y584648D01*
X887991Y583333D01*
X891000Y583036D01*
Y609500D01*
D02*
G37*
G36*
X691999Y649068D02*
X689910Y648793D01*
X687964Y647987D01*
X686293Y646704D01*
X685011Y645033D01*
X684204Y643087D01*
X683930Y640999D01*
X684204Y638910D01*
X685011Y636964D01*
X686293Y635293D01*
X687411Y634436D01*
Y616562D01*
X686293Y615704D01*
X685011Y614033D01*
X684204Y612087D01*
X683930Y609999D01*
X684204Y607910D01*
X685011Y605964D01*
X686293Y604293D01*
X687964Y603011D01*
X689910Y602205D01*
X691999Y601930D01*
X693983Y602191D01*
X695966Y600669D01*
X696232Y598651D01*
X697139Y596461D01*
X698581Y594581D01*
X700461Y593139D01*
X702651Y592232D01*
X703500Y592120D01*
Y601000D01*
Y609880D01*
X702651Y609768D01*
X702450Y609685D01*
X701732Y609780D01*
X699962Y610801D01*
X699793Y612087D01*
X698987Y614033D01*
X697704Y615704D01*
X696587Y616562D01*
Y634436D01*
X697704Y635293D01*
X698987Y636964D01*
X699793Y638910D01*
X700068Y640999D01*
X699793Y643087D01*
X698987Y645033D01*
X697704Y646704D01*
X696033Y647987D01*
X694087Y648793D01*
X691999Y649068D01*
D02*
G37*
G36*
X777500Y572880D02*
Y565500D01*
X784880D01*
X784768Y566349D01*
X783861Y568539D01*
X782419Y570419D01*
X780539Y571861D01*
X778350Y572768D01*
X777500Y572880D01*
D02*
G37*
G36*
X915611Y609500D02*
X894000D01*
Y583036D01*
X897009Y583333D01*
X901344Y584648D01*
X905340Y586784D01*
X908842Y589658D01*
X911716Y593160D01*
X913852Y597156D01*
X915167Y601491D01*
X915611Y606000D01*
Y609500D01*
D02*
G37*
G36*
X377300Y441691D02*
X374559Y441330D01*
X372005Y440272D01*
X369811Y438589D01*
X368128Y436395D01*
X367070Y433841D01*
X366709Y431100D01*
X367070Y428359D01*
X368128Y425805D01*
X369811Y423611D01*
X372005Y421928D01*
X374559Y420870D01*
X377300Y420509D01*
X380041Y420870D01*
X382595Y421928D01*
X384789Y423611D01*
X386472Y425805D01*
X387530Y428359D01*
X387891Y431100D01*
X387530Y433841D01*
X386472Y436395D01*
X384789Y438589D01*
X382595Y440272D01*
X380041Y441330D01*
X377300Y441691D01*
D02*
G37*
G36*
X641900Y271882D02*
X639420Y271556D01*
X637109Y270598D01*
X635125Y269076D01*
X633602Y267091D01*
X632645Y264780D01*
X632318Y262300D01*
X632645Y259820D01*
X633602Y257509D01*
X635125Y255525D01*
X637109Y254002D01*
X639420Y253045D01*
X641900Y252718D01*
X644380Y253045D01*
X646691Y254002D01*
X648676Y255525D01*
X650198Y257509D01*
X651155Y259820D01*
X651482Y262300D01*
X651155Y264780D01*
X650198Y267091D01*
X648676Y269076D01*
X646691Y270598D01*
X644380Y271556D01*
X641900Y271882D01*
D02*
G37*
G36*
X718100D02*
X715620Y271556D01*
X713309Y270598D01*
X711325Y269076D01*
X709802Y267091D01*
X708845Y264780D01*
X708518Y262300D01*
X708845Y259820D01*
X709802Y257509D01*
X711325Y255525D01*
X713309Y254002D01*
X715620Y253045D01*
X718100Y252718D01*
X720580Y253045D01*
X722891Y254002D01*
X724875Y255525D01*
X726398Y257509D01*
X727355Y259820D01*
X727682Y262300D01*
X727355Y264780D01*
X726398Y267091D01*
X724875Y269076D01*
X722891Y270598D01*
X720580Y271556D01*
X718100Y271882D01*
D02*
G37*
G36*
X540300D02*
X537820Y271556D01*
X535509Y270598D01*
X533525Y269076D01*
X532002Y267091D01*
X531045Y264780D01*
X530718Y262300D01*
X531045Y259820D01*
X532002Y257509D01*
X533525Y255525D01*
X535509Y254002D01*
X537820Y253045D01*
X540300Y252718D01*
X542780Y253045D01*
X545091Y254002D01*
X547076Y255525D01*
X548598Y257509D01*
X549556Y259820D01*
X549882Y262300D01*
X549556Y264780D01*
X548598Y267091D01*
X547076Y269076D01*
X545091Y270598D01*
X542780Y271556D01*
X540300Y271882D01*
D02*
G37*
G36*
X616500D02*
X614020Y271556D01*
X611709Y270598D01*
X609725Y269076D01*
X608202Y267091D01*
X607245Y264780D01*
X606918Y262300D01*
X607245Y259820D01*
X608202Y257509D01*
X609725Y255525D01*
X611709Y254002D01*
X614020Y253045D01*
X616500Y252718D01*
X618980Y253045D01*
X621291Y254002D01*
X623275Y255525D01*
X624798Y257509D01*
X625756Y259820D01*
X626082Y262300D01*
X625756Y264780D01*
X624798Y267091D01*
X623275Y269076D01*
X621291Y270598D01*
X618980Y271556D01*
X616500Y271882D01*
D02*
G37*
G36*
X845100D02*
X842620Y271556D01*
X840309Y270598D01*
X838325Y269076D01*
X836802Y267091D01*
X835845Y264780D01*
X835518Y262300D01*
X835845Y259820D01*
X836802Y257509D01*
X838325Y255525D01*
X840309Y254002D01*
X842620Y253045D01*
X845100Y252718D01*
X847580Y253045D01*
X849891Y254002D01*
X851876Y255525D01*
X853398Y257509D01*
X854355Y259820D01*
X854682Y262300D01*
X854355Y264780D01*
X853398Y267091D01*
X851876Y269076D01*
X849891Y270598D01*
X847580Y271556D01*
X845100Y271882D01*
D02*
G37*
G36*
X499000Y271800D02*
X480000D01*
Y252800D01*
X499000D01*
Y271800D01*
D02*
G37*
G36*
X743500Y271882D02*
X741020Y271556D01*
X738709Y270598D01*
X736725Y269076D01*
X735202Y267091D01*
X734245Y264780D01*
X733918Y262300D01*
X734245Y259820D01*
X735202Y257509D01*
X736725Y255525D01*
X738709Y254002D01*
X741020Y253045D01*
X743500Y252718D01*
X745980Y253045D01*
X748291Y254002D01*
X750275Y255525D01*
X751798Y257509D01*
X752756Y259820D01*
X753082Y262300D01*
X752756Y264780D01*
X751798Y267091D01*
X750275Y269076D01*
X748291Y270598D01*
X745980Y271556D01*
X743500Y271882D01*
D02*
G37*
G36*
X819700D02*
X817220Y271556D01*
X814909Y270598D01*
X812925Y269076D01*
X811402Y267091D01*
X810445Y264780D01*
X810118Y262300D01*
X810445Y259820D01*
X811402Y257509D01*
X812925Y255525D01*
X814909Y254002D01*
X817220Y253045D01*
X819700Y252718D01*
X822180Y253045D01*
X824491Y254002D01*
X826476Y255525D01*
X827998Y257509D01*
X828956Y259820D01*
X829282Y262300D01*
X828956Y264780D01*
X827998Y267091D01*
X826476Y269076D01*
X824491Y270598D01*
X822180Y271556D01*
X819700Y271882D01*
D02*
G37*
G36*
X514900D02*
X512420Y271556D01*
X510109Y270598D01*
X508125Y269076D01*
X506602Y267091D01*
X505645Y264780D01*
X505318Y262300D01*
X505645Y259820D01*
X506602Y257509D01*
X508125Y255525D01*
X510109Y254002D01*
X512420Y253045D01*
X514900Y252718D01*
X517380Y253045D01*
X519691Y254002D01*
X521675Y255525D01*
X523198Y257509D01*
X524156Y259820D01*
X524482Y262300D01*
X524156Y264780D01*
X523198Y267091D01*
X521675Y269076D01*
X519691Y270598D01*
X517380Y271556D01*
X514900Y271882D01*
D02*
G37*
G36*
X665800Y260800D02*
X656907D01*
X657070Y259559D01*
X658128Y257005D01*
X659811Y254811D01*
X662005Y253128D01*
X664559Y252070D01*
X665800Y251907D01*
Y260800D01*
D02*
G37*
G36*
X677693D02*
X668800D01*
Y251907D01*
X670041Y252070D01*
X672595Y253128D01*
X674789Y254811D01*
X676472Y257005D01*
X677530Y259559D01*
X677693Y260800D01*
D02*
G37*
G36*
X564200D02*
X555307D01*
X555470Y259559D01*
X556528Y257005D01*
X558211Y254811D01*
X560405Y253128D01*
X562959Y252070D01*
X564200Y251907D01*
Y260800D01*
D02*
G37*
G36*
X576093D02*
X567200D01*
Y251907D01*
X568441Y252070D01*
X570995Y253128D01*
X573189Y254811D01*
X574872Y257005D01*
X575930Y259559D01*
X576093Y260800D01*
D02*
G37*
G36*
X869000D02*
X860107D01*
X860270Y259559D01*
X861328Y257005D01*
X863011Y254811D01*
X865205Y253128D01*
X867759Y252070D01*
X869000Y251907D01*
Y260800D01*
D02*
G37*
G36*
X880893D02*
X872000D01*
Y251907D01*
X873241Y252070D01*
X875795Y253128D01*
X877989Y254811D01*
X879672Y257005D01*
X880730Y259559D01*
X880893Y260800D01*
D02*
G37*
G36*
X767400D02*
X758507D01*
X758670Y259559D01*
X759728Y257005D01*
X761411Y254811D01*
X763605Y253128D01*
X766159Y252070D01*
X767400Y251907D01*
Y260800D01*
D02*
G37*
G36*
X779293D02*
X770400D01*
Y251907D01*
X771641Y252070D01*
X774195Y253128D01*
X776389Y254811D01*
X778072Y257005D01*
X779130Y259559D01*
X779293Y260800D01*
D02*
G37*
G36*
X600600Y271800D02*
X581600D01*
Y252800D01*
X600600D01*
Y271800D01*
D02*
G37*
G36*
X963500Y303987D02*
X959665Y303685D01*
X954461Y302436D01*
X949517Y300388D01*
X944954Y297592D01*
X940884Y294116D01*
X937408Y290047D01*
X934612Y285483D01*
X932564Y280539D01*
X931315Y275335D01*
X931013Y271500D01*
X963500D01*
Y303987D01*
D02*
G37*
G36*
X701500Y375500D02*
X694120D01*
X694232Y374650D01*
X695139Y372461D01*
X696581Y370581D01*
X698461Y369138D01*
X700650Y368232D01*
X701500Y368120D01*
Y375500D01*
D02*
G37*
G36*
X872000Y272693D02*
Y263800D01*
X880893D01*
X880730Y265041D01*
X879672Y267595D01*
X877989Y269789D01*
X875795Y271472D01*
X873241Y272530D01*
X872000Y272693D01*
D02*
G37*
G36*
X386500Y303987D02*
Y271500D01*
X418987D01*
X418685Y275335D01*
X417436Y280539D01*
X415388Y285483D01*
X412592Y290047D01*
X409116Y294116D01*
X405047Y297592D01*
X400483Y300388D01*
X395539Y302436D01*
X390335Y303685D01*
X386500Y303987D01*
D02*
G37*
G36*
X701500Y385880D02*
X700650Y385768D01*
X698461Y384861D01*
X696581Y383419D01*
X695139Y381539D01*
X694232Y379350D01*
X694120Y378500D01*
X701500D01*
Y385880D01*
D02*
G37*
G36*
X704500D02*
Y378500D01*
X711880D01*
X711768Y379350D01*
X710862Y381539D01*
X709419Y383419D01*
X707539Y384861D01*
X705350Y385768D01*
X704500Y385880D01*
D02*
G37*
G36*
X711880Y375500D02*
X704500D01*
Y368120D01*
X705350Y368232D01*
X707539Y369138D01*
X709419Y370581D01*
X710862Y372461D01*
X711768Y374650D01*
X711880Y375500D01*
D02*
G37*
G36*
X852000Y382069D02*
X849912Y381794D01*
X847965Y380988D01*
X846294Y379706D01*
X845012Y378035D01*
X844713Y377314D01*
X769286D01*
X768988Y378035D01*
X767706Y379706D01*
X766034Y380988D01*
X764088Y381794D01*
X762000Y382069D01*
X759912Y381794D01*
X757965Y380988D01*
X756294Y379706D01*
X755012Y378035D01*
X754206Y376088D01*
X753931Y374000D01*
X754206Y371912D01*
X755012Y369966D01*
X756294Y368294D01*
X757965Y367012D01*
X759912Y366206D01*
X762000Y365931D01*
X764088Y366206D01*
X766034Y367012D01*
X767706Y368294D01*
X768988Y369966D01*
X769286Y370686D01*
X844713D01*
X845012Y369966D01*
X846294Y368294D01*
X847965Y367012D01*
X849912Y366206D01*
X852000Y365931D01*
X854088Y366206D01*
X856034Y367012D01*
X857706Y368294D01*
X858988Y369966D01*
X859794Y371912D01*
X860069Y374000D01*
X859794Y376088D01*
X858988Y378035D01*
X857706Y379706D01*
X856034Y380988D01*
X854088Y381794D01*
X852000Y382069D01*
D02*
G37*
G36*
X869000Y272693D02*
X867759Y272530D01*
X865205Y271472D01*
X863011Y269789D01*
X861328Y267595D01*
X860270Y265041D01*
X860107Y263800D01*
X869000D01*
Y272693D01*
D02*
G37*
G36*
X564200D02*
X562959Y272530D01*
X560405Y271472D01*
X558211Y269789D01*
X556528Y267595D01*
X555470Y265041D01*
X555307Y263800D01*
X564200D01*
Y272693D01*
D02*
G37*
G36*
X567200D02*
Y263800D01*
X576093D01*
X575930Y265041D01*
X574872Y267595D01*
X573189Y269789D01*
X570995Y271472D01*
X568441Y272530D01*
X567200Y272693D01*
D02*
G37*
G36*
X702200Y271800D02*
X683200D01*
Y252800D01*
X702200D01*
Y271800D01*
D02*
G37*
G36*
X803800D02*
X784800D01*
Y252800D01*
X803800D01*
Y271800D01*
D02*
G37*
G36*
X767400Y272693D02*
X766159Y272530D01*
X763605Y271472D01*
X761411Y269789D01*
X759728Y267595D01*
X758670Y265041D01*
X758507Y263800D01*
X767400D01*
Y272693D01*
D02*
G37*
G36*
X770400D02*
Y263800D01*
X779293D01*
X779130Y265041D01*
X778072Y267595D01*
X776389Y269789D01*
X774195Y271472D01*
X771641Y272530D01*
X770400Y272693D01*
D02*
G37*
G36*
X665800D02*
X664559Y272530D01*
X662005Y271472D01*
X659811Y269789D01*
X658128Y267595D01*
X657070Y265041D01*
X656907Y263800D01*
X665800D01*
Y272693D01*
D02*
G37*
G36*
X668800D02*
Y263800D01*
X677693D01*
X677530Y265041D01*
X676472Y267595D01*
X674789Y269789D01*
X672595Y271472D01*
X670041Y272530D01*
X668800Y272693D01*
D02*
G37*
G36*
X459100Y782282D02*
X456620Y781955D01*
X454309Y780998D01*
X452324Y779475D01*
X450802Y777491D01*
X449845Y775180D01*
X449518Y772700D01*
X449845Y770220D01*
X450802Y767909D01*
X452324Y765925D01*
X454309Y764402D01*
X456620Y763445D01*
X459100Y763118D01*
X461580Y763445D01*
X463891Y764402D01*
X465875Y765925D01*
X467398Y767909D01*
X468355Y770220D01*
X468682Y772700D01*
X468355Y775180D01*
X467398Y777491D01*
X465875Y779475D01*
X463891Y780998D01*
X461580Y781955D01*
X459100Y782282D01*
D02*
G37*
G36*
X509900D02*
X507420Y781955D01*
X505109Y780998D01*
X503125Y779475D01*
X501602Y777491D01*
X500644Y775180D01*
X500318Y772700D01*
X500644Y770220D01*
X501602Y767909D01*
X503125Y765925D01*
X505109Y764402D01*
X507420Y763445D01*
X509900Y763118D01*
X512380Y763445D01*
X514691Y764402D01*
X516675Y765925D01*
X518198Y767909D01*
X519156Y770220D01*
X519482Y772700D01*
X519156Y775180D01*
X518198Y777491D01*
X516675Y779475D01*
X514691Y780998D01*
X512380Y781955D01*
X509900Y782282D01*
D02*
G37*
G36*
X850493Y771200D02*
X841600D01*
Y762307D01*
X842841Y762470D01*
X845395Y763528D01*
X847589Y765211D01*
X849272Y767405D01*
X850330Y769959D01*
X850493Y771200D01*
D02*
G37*
G36*
X433700Y782282D02*
X431220Y781955D01*
X428909Y780998D01*
X426925Y779475D01*
X425402Y777491D01*
X424445Y775180D01*
X424118Y772700D01*
X424445Y770220D01*
X425402Y767909D01*
X426925Y765925D01*
X428909Y764402D01*
X431220Y763445D01*
X433700Y763118D01*
X436180Y763445D01*
X438491Y764402D01*
X440475Y765925D01*
X441998Y767909D01*
X442956Y770220D01*
X443282Y772700D01*
X442956Y775180D01*
X441998Y777491D01*
X440475Y779475D01*
X438491Y780998D01*
X436180Y781955D01*
X433700Y782282D01*
D02*
G37*
G36*
X611500D02*
X609020Y781955D01*
X606709Y780998D01*
X604725Y779475D01*
X603202Y777491D01*
X602244Y775180D01*
X601918Y772700D01*
X602244Y770220D01*
X603202Y767909D01*
X604725Y765925D01*
X606709Y764402D01*
X609020Y763445D01*
X611500Y763118D01*
X613980Y763445D01*
X616291Y764402D01*
X618275Y765925D01*
X619798Y767909D01*
X620756Y770220D01*
X621082Y772700D01*
X620756Y775180D01*
X619798Y777491D01*
X618275Y779475D01*
X616291Y780998D01*
X613980Y781955D01*
X611500Y782282D01*
D02*
G37*
G36*
X636900D02*
X634420Y781955D01*
X632109Y780998D01*
X630125Y779475D01*
X628602Y777491D01*
X627645Y775180D01*
X627318Y772700D01*
X627645Y770220D01*
X628602Y767909D01*
X630125Y765925D01*
X632109Y764402D01*
X634420Y763445D01*
X636900Y763118D01*
X639380Y763445D01*
X641691Y764402D01*
X643675Y765925D01*
X645198Y767909D01*
X646155Y770220D01*
X646482Y772700D01*
X646155Y775180D01*
X645198Y777491D01*
X643675Y779475D01*
X641691Y780998D01*
X639380Y781955D01*
X636900Y782282D01*
D02*
G37*
G36*
X535300D02*
X532820Y781955D01*
X530509Y780998D01*
X528525Y779475D01*
X527002Y777491D01*
X526045Y775180D01*
X525718Y772700D01*
X526045Y770220D01*
X527002Y767909D01*
X528525Y765925D01*
X530509Y764402D01*
X532820Y763445D01*
X535300Y763118D01*
X537780Y763445D01*
X540091Y764402D01*
X542075Y765925D01*
X543598Y767909D01*
X544556Y770220D01*
X544882Y772700D01*
X544556Y775180D01*
X543598Y777491D01*
X542075Y779475D01*
X540091Y780998D01*
X537780Y781955D01*
X535300Y782282D01*
D02*
G37*
G36*
X560700D02*
X558220Y781955D01*
X555909Y780998D01*
X553924Y779475D01*
X552402Y777491D01*
X551445Y775180D01*
X551118Y772700D01*
X551445Y770220D01*
X552402Y767909D01*
X553924Y765925D01*
X555909Y764402D01*
X558220Y763445D01*
X560700Y763118D01*
X563180Y763445D01*
X565491Y764402D01*
X567475Y765925D01*
X568998Y767909D01*
X569955Y770220D01*
X570282Y772700D01*
X569955Y775180D01*
X568998Y777491D01*
X567475Y779475D01*
X565491Y780998D01*
X563180Y781955D01*
X560700Y782282D01*
D02*
G37*
G36*
X838600Y771200D02*
X829707D01*
X829870Y769959D01*
X830928Y767405D01*
X832611Y765211D01*
X834805Y763528D01*
X837359Y762470D01*
X838600Y762307D01*
Y771200D01*
D02*
G37*
G36*
X584600D02*
X575707D01*
X575870Y769959D01*
X576928Y767405D01*
X578611Y765211D01*
X580805Y763528D01*
X583359Y762470D01*
X584600Y762307D01*
Y771200D01*
D02*
G37*
G36*
X596493D02*
X587600D01*
Y762307D01*
X588841Y762470D01*
X591395Y763528D01*
X593589Y765211D01*
X595272Y767405D01*
X596330Y769959D01*
X596493Y771200D01*
D02*
G37*
G36*
X483000D02*
X474107D01*
X474270Y769959D01*
X475328Y767405D01*
X477011Y765211D01*
X479205Y763528D01*
X481759Y762470D01*
X483000Y762307D01*
Y771200D01*
D02*
G37*
G36*
X494893D02*
X486000D01*
Y762307D01*
X487241Y762470D01*
X489795Y763528D01*
X491989Y765211D01*
X493672Y767405D01*
X494730Y769959D01*
X494893Y771200D01*
D02*
G37*
G36*
X787800D02*
X778907D01*
X779070Y769959D01*
X780128Y767405D01*
X781811Y765211D01*
X784005Y763528D01*
X786559Y762470D01*
X787800Y762307D01*
Y771200D01*
D02*
G37*
G36*
X799693D02*
X790800D01*
Y762307D01*
X792041Y762470D01*
X794595Y763528D01*
X796789Y765211D01*
X798472Y767405D01*
X799530Y769959D01*
X799693Y771200D01*
D02*
G37*
G36*
X660800D02*
X651907D01*
X652070Y769959D01*
X653128Y767405D01*
X654811Y765211D01*
X657005Y763528D01*
X659559Y762470D01*
X660800Y762307D01*
Y771200D01*
D02*
G37*
G36*
X672693D02*
X663800D01*
Y762307D01*
X665041Y762470D01*
X667595Y763528D01*
X669789Y765211D01*
X671472Y767405D01*
X672530Y769959D01*
X672693Y771200D01*
D02*
G37*
G36*
X687700Y782282D02*
X685220Y781955D01*
X682909Y780998D01*
X680925Y779475D01*
X679402Y777491D01*
X678445Y775180D01*
X678118Y772700D01*
X678445Y770220D01*
X679402Y767909D01*
X680925Y765925D01*
X682909Y764402D01*
X685220Y763445D01*
X687700Y763118D01*
X690180Y763445D01*
X692491Y764402D01*
X694475Y765925D01*
X695998Y767909D01*
X696955Y770220D01*
X697282Y772700D01*
X696955Y775180D01*
X695998Y777491D01*
X694475Y779475D01*
X692491Y780998D01*
X690180Y781955D01*
X687700Y782282D01*
D02*
G37*
G36*
X660800Y783093D02*
X659559Y782930D01*
X657005Y781872D01*
X654811Y780189D01*
X653128Y777995D01*
X652070Y775441D01*
X651907Y774200D01*
X660800D01*
Y783093D01*
D02*
G37*
G36*
X663800D02*
Y774200D01*
X672693D01*
X672530Y775441D01*
X671472Y777995D01*
X669789Y780189D01*
X667595Y781872D01*
X665041Y782930D01*
X663800Y783093D01*
D02*
G37*
G36*
X584600D02*
X583359Y782930D01*
X580805Y781872D01*
X578611Y780189D01*
X576928Y777995D01*
X575870Y775441D01*
X575707Y774200D01*
X584600D01*
Y783093D01*
D02*
G37*
G36*
X587600D02*
Y774200D01*
X596493D01*
X596330Y775441D01*
X595272Y777995D01*
X593589Y780189D01*
X591395Y781872D01*
X588841Y782930D01*
X587600Y783093D01*
D02*
G37*
G36*
X838600D02*
X837359Y782930D01*
X834805Y781872D01*
X832611Y780189D01*
X830928Y777995D01*
X829870Y775441D01*
X829707Y774200D01*
X838600D01*
Y783093D01*
D02*
G37*
G36*
X841600D02*
Y774200D01*
X850493D01*
X850330Y775441D01*
X849272Y777995D01*
X847589Y780189D01*
X845395Y781872D01*
X842841Y782930D01*
X841600Y783093D01*
D02*
G37*
G36*
X787800D02*
X786559Y782930D01*
X784005Y781872D01*
X781811Y780189D01*
X780128Y777995D01*
X779070Y775441D01*
X778907Y774200D01*
X787800D01*
Y783093D01*
D02*
G37*
G36*
X790800D02*
Y774200D01*
X799693D01*
X799530Y775441D01*
X798472Y777995D01*
X796789Y780189D01*
X794595Y781872D01*
X792041Y782930D01*
X790800Y783093D01*
D02*
G37*
G36*
X486000D02*
Y774200D01*
X494893D01*
X494730Y775441D01*
X493672Y777995D01*
X491989Y780189D01*
X489795Y781872D01*
X487241Y782930D01*
X486000Y783093D01*
D02*
G37*
G36*
X763900Y782282D02*
X761420Y781955D01*
X759109Y780998D01*
X757124Y779475D01*
X755602Y777491D01*
X754644Y775180D01*
X754318Y772700D01*
X754644Y770220D01*
X755602Y767909D01*
X757124Y765925D01*
X759109Y764402D01*
X761420Y763445D01*
X763900Y763118D01*
X766380Y763445D01*
X768691Y764402D01*
X770675Y765925D01*
X772198Y767909D01*
X773156Y770220D01*
X773482Y772700D01*
X773156Y775180D01*
X772198Y777491D01*
X770675Y779475D01*
X768691Y780998D01*
X766380Y781955D01*
X763900Y782282D01*
D02*
G37*
G36*
X814700D02*
X812220Y781955D01*
X809909Y780998D01*
X807924Y779475D01*
X806402Y777491D01*
X805444Y775180D01*
X805118Y772700D01*
X805444Y770220D01*
X806402Y767909D01*
X807924Y765925D01*
X809909Y764402D01*
X812220Y763445D01*
X814700Y763118D01*
X817180Y763445D01*
X819491Y764402D01*
X821475Y765925D01*
X822998Y767909D01*
X823956Y770220D01*
X824282Y772700D01*
X823956Y775180D01*
X822998Y777491D01*
X821475Y779475D01*
X819491Y780998D01*
X817180Y781955D01*
X814700Y782282D01*
D02*
G37*
G36*
X713100D02*
X710620Y781955D01*
X708309Y780998D01*
X706324Y779475D01*
X704802Y777491D01*
X703845Y775180D01*
X703518Y772700D01*
X703845Y770220D01*
X704802Y767909D01*
X706324Y765925D01*
X708309Y764402D01*
X710620Y763445D01*
X713100Y763118D01*
X715580Y763445D01*
X717891Y764402D01*
X719875Y765925D01*
X721398Y767909D01*
X722355Y770220D01*
X722682Y772700D01*
X722355Y775180D01*
X721398Y777491D01*
X719875Y779475D01*
X717891Y780998D01*
X715580Y781955D01*
X713100Y782282D01*
D02*
G37*
G36*
X738500D02*
X736020Y781955D01*
X733709Y780998D01*
X731724Y779475D01*
X730202Y777491D01*
X729245Y775180D01*
X728918Y772700D01*
X729245Y770220D01*
X730202Y767909D01*
X731724Y765925D01*
X733709Y764402D01*
X736020Y763445D01*
X738500Y763118D01*
X740980Y763445D01*
X743291Y764402D01*
X745275Y765925D01*
X746798Y767909D01*
X747756Y770220D01*
X748082Y772700D01*
X747756Y775180D01*
X746798Y777491D01*
X745275Y779475D01*
X743291Y780998D01*
X740980Y781955D01*
X738500Y782282D01*
D02*
G37*
G36*
X916300D02*
X913820Y781955D01*
X911509Y780998D01*
X909525Y779475D01*
X908002Y777491D01*
X907045Y775180D01*
X906718Y772700D01*
X907045Y770220D01*
X908002Y767909D01*
X909525Y765925D01*
X911509Y764402D01*
X913820Y763445D01*
X916300Y763118D01*
X918780Y763445D01*
X921091Y764402D01*
X923075Y765925D01*
X924598Y767909D01*
X925555Y770220D01*
X925882Y772700D01*
X925555Y775180D01*
X924598Y777491D01*
X923075Y779475D01*
X921091Y780998D01*
X918780Y781955D01*
X916300Y782282D01*
D02*
G37*
G36*
X483000Y783093D02*
X481759Y782930D01*
X479205Y781872D01*
X477011Y780189D01*
X475328Y777995D01*
X474270Y775441D01*
X474107Y774200D01*
X483000D01*
Y783093D01*
D02*
G37*
G36*
X865500Y782282D02*
X863020Y781955D01*
X860709Y780998D01*
X858725Y779475D01*
X857202Y777491D01*
X856245Y775180D01*
X855918Y772700D01*
X856245Y770220D01*
X857202Y767909D01*
X858725Y765925D01*
X860709Y764402D01*
X863020Y763445D01*
X865500Y763118D01*
X867980Y763445D01*
X870291Y764402D01*
X872275Y765925D01*
X873798Y767909D01*
X874755Y770220D01*
X875082Y772700D01*
X874755Y775180D01*
X873798Y777491D01*
X872275Y779475D01*
X870291Y780998D01*
X867980Y781955D01*
X865500Y782282D01*
D02*
G37*
G36*
X890900D02*
X888420Y781955D01*
X886109Y780998D01*
X884125Y779475D01*
X882602Y777491D01*
X881645Y775180D01*
X881318Y772700D01*
X881645Y770220D01*
X882602Y767909D01*
X884125Y765925D01*
X886109Y764402D01*
X888420Y763445D01*
X890900Y763118D01*
X893380Y763445D01*
X895691Y764402D01*
X897675Y765925D01*
X899198Y767909D01*
X900155Y770220D01*
X900482Y772700D01*
X900155Y775180D01*
X899198Y777491D01*
X897675Y779475D01*
X895691Y780998D01*
X893380Y781955D01*
X890900Y782282D01*
D02*
G37*
G36*
X926693Y745800D02*
X917800D01*
Y736907D01*
X919041Y737070D01*
X921595Y738128D01*
X923789Y739811D01*
X925472Y742005D01*
X926530Y744559D01*
X926693Y745800D01*
D02*
G37*
G36*
X459100Y756882D02*
X456620Y756555D01*
X454309Y755598D01*
X452324Y754075D01*
X450802Y752091D01*
X449845Y749780D01*
X449518Y747300D01*
X449845Y744820D01*
X450802Y742509D01*
X452324Y740525D01*
X454309Y739002D01*
X456620Y738045D01*
X459100Y737718D01*
X461580Y738045D01*
X463891Y739002D01*
X465875Y740525D01*
X467398Y742509D01*
X468355Y744820D01*
X468682Y747300D01*
X468355Y749780D01*
X467398Y752091D01*
X465875Y754075D01*
X463891Y755598D01*
X461580Y756555D01*
X459100Y756882D01*
D02*
G37*
G36*
X748893Y745800D02*
X740000D01*
Y736907D01*
X741241Y737070D01*
X743795Y738128D01*
X745989Y739811D01*
X747672Y742005D01*
X748730Y744559D01*
X748893Y745800D01*
D02*
G37*
G36*
X914800D02*
X905907D01*
X906070Y744559D01*
X907128Y742005D01*
X908811Y739811D01*
X911005Y738128D01*
X913559Y737070D01*
X914800Y736907D01*
Y745800D01*
D02*
G37*
G36*
X560700Y756882D02*
X558220Y756555D01*
X555909Y755598D01*
X553924Y754075D01*
X552402Y752091D01*
X551445Y749780D01*
X551118Y747300D01*
X551445Y744820D01*
X552402Y742509D01*
X553924Y740525D01*
X555909Y739002D01*
X558220Y738045D01*
X560700Y737718D01*
X563180Y738045D01*
X565491Y739002D01*
X567475Y740525D01*
X568998Y742509D01*
X569955Y744820D01*
X570282Y747300D01*
X569955Y749780D01*
X568998Y752091D01*
X567475Y754075D01*
X565491Y755598D01*
X563180Y756555D01*
X560700Y756882D01*
D02*
G37*
G36*
X586100D02*
X583620Y756555D01*
X581309Y755598D01*
X579324Y754075D01*
X577802Y752091D01*
X576844Y749780D01*
X576518Y747300D01*
X576844Y744820D01*
X577802Y742509D01*
X579324Y740525D01*
X581309Y739002D01*
X583620Y738045D01*
X586100Y737718D01*
X588580Y738045D01*
X590891Y739002D01*
X592875Y740525D01*
X594398Y742509D01*
X595355Y744820D01*
X595682Y747300D01*
X595355Y749780D01*
X594398Y752091D01*
X592875Y754075D01*
X590891Y755598D01*
X588580Y756555D01*
X586100Y756882D01*
D02*
G37*
G36*
X484500D02*
X482020Y756555D01*
X479709Y755598D01*
X477724Y754075D01*
X476202Y752091D01*
X475244Y749780D01*
X474918Y747300D01*
X475244Y744820D01*
X476202Y742509D01*
X477724Y740525D01*
X479709Y739002D01*
X482020Y738045D01*
X484500Y737718D01*
X486980Y738045D01*
X489291Y739002D01*
X491275Y740525D01*
X492798Y742509D01*
X493755Y744820D01*
X494082Y747300D01*
X493755Y749780D01*
X492798Y752091D01*
X491275Y754075D01*
X489291Y755598D01*
X486980Y756555D01*
X484500Y756882D01*
D02*
G37*
G36*
X509900D02*
X507420Y756555D01*
X505109Y755598D01*
X503125Y754075D01*
X501602Y752091D01*
X500644Y749780D01*
X500318Y747300D01*
X500644Y744820D01*
X501602Y742509D01*
X503125Y740525D01*
X505109Y739002D01*
X507420Y738045D01*
X509900Y737718D01*
X512380Y738045D01*
X514691Y739002D01*
X516675Y740525D01*
X518198Y742509D01*
X519156Y744820D01*
X519482Y747300D01*
X519156Y749780D01*
X518198Y752091D01*
X516675Y754075D01*
X514691Y755598D01*
X512380Y756555D01*
X509900Y756882D01*
D02*
G37*
G36*
X737000Y745800D02*
X728107D01*
X728270Y744559D01*
X729328Y742005D01*
X731011Y739811D01*
X733205Y738128D01*
X735759Y737070D01*
X737000Y736907D01*
Y745800D01*
D02*
G37*
G36*
X771550Y642930D02*
Y635550D01*
X778930D01*
X778818Y636399D01*
X777911Y638589D01*
X776469Y640469D01*
X774589Y641911D01*
X772400Y642818D01*
X771550Y642930D01*
D02*
G37*
G36*
X510999Y679068D02*
X508911Y678793D01*
X506964Y677987D01*
X505293Y676704D01*
X504011Y675033D01*
X503205Y673087D01*
X502930Y670999D01*
X503205Y668910D01*
X504011Y666964D01*
X505293Y665293D01*
X506964Y664011D01*
X507685Y663712D01*
Y660371D01*
X505628Y658314D01*
X501000D01*
X499943Y658103D01*
X499732Y658061D01*
X498657Y657343D01*
X492808Y651494D01*
X492087Y651793D01*
X489999Y652068D01*
X487911Y651793D01*
X485965Y650987D01*
X484293Y649704D01*
X483011Y648033D01*
X482205Y646087D01*
X481930Y643999D01*
X482205Y641910D01*
X483011Y639964D01*
X484293Y638293D01*
X485965Y637011D01*
X487911Y636205D01*
X489460Y636001D01*
X490264Y633633D01*
X444719Y588088D01*
X386765D01*
X386472Y588795D01*
X384789Y590989D01*
X382595Y592672D01*
X380041Y593730D01*
X377300Y594091D01*
X374559Y593730D01*
X372005Y592672D01*
X369811Y590989D01*
X368128Y588795D01*
X367070Y586241D01*
X366709Y583500D01*
X367070Y580759D01*
X368128Y578205D01*
X369811Y576011D01*
X372005Y574328D01*
X374559Y573270D01*
X377300Y572909D01*
X380041Y573270D01*
X382595Y574328D01*
X384789Y576011D01*
X386472Y578205D01*
X386765Y578912D01*
X390412D01*
Y486703D01*
X387960Y486216D01*
X387345Y487700D01*
X385502Y490102D01*
X383100Y491945D01*
X380302Y493104D01*
X378800Y493302D01*
Y481900D01*
Y470498D01*
X380302Y470696D01*
X383100Y471855D01*
X385502Y473698D01*
X387345Y476100D01*
X387960Y477584D01*
X390412Y477097D01*
Y464723D01*
X388333Y463334D01*
X387800Y463555D01*
Y467000D01*
X366800D01*
Y446000D01*
X387800D01*
Y451912D01*
X390500D01*
X392256Y452261D01*
X393744Y453256D01*
X398244Y457756D01*
X399239Y459244D01*
X399588Y461000D01*
Y578912D01*
X446619D01*
X448375Y579261D01*
X449864Y580256D01*
X455877Y586269D01*
X458186Y585312D01*
Y489000D01*
Y458872D01*
X437809Y438495D01*
X437088Y438794D01*
X435000Y439069D01*
X432912Y438794D01*
X430965Y437988D01*
X429294Y436706D01*
X428012Y435034D01*
X427206Y433088D01*
X426931Y431000D01*
X427206Y428912D01*
X428012Y426965D01*
X429294Y425294D01*
X430965Y424012D01*
X432912Y423206D01*
X435000Y422931D01*
X437088Y423206D01*
X439035Y424012D01*
X440706Y425294D01*
X441988Y426965D01*
X442794Y428912D01*
X443069Y431000D01*
X442794Y433088D01*
X442495Y433809D01*
X463843Y455157D01*
X464323Y455875D01*
X464561Y456232D01*
X464814Y457500D01*
Y489000D01*
Y587127D01*
X523672Y645985D01*
X535002D01*
X535011Y645964D01*
X536293Y644293D01*
X537964Y643011D01*
X539911Y642205D01*
X541999Y641930D01*
X544087Y642205D01*
X546033Y643011D01*
X546446Y643327D01*
X547427Y643198D01*
X548944Y642570D01*
X549073Y641919D01*
X549206Y640912D01*
X549336Y640597D01*
X549432Y640118D01*
X525809Y616496D01*
X525088Y616794D01*
X523000Y617069D01*
X520912Y616794D01*
X518965Y615988D01*
X517294Y614706D01*
X516012Y613035D01*
X515206Y611088D01*
X514931Y609000D01*
X515206Y606912D01*
X516012Y604966D01*
X517294Y603294D01*
X518965Y602012D01*
X520912Y601206D01*
X523000Y600931D01*
X525088Y601206D01*
X527034Y602012D01*
X528706Y603294D01*
X529988Y604966D01*
X530794Y606912D01*
X531069Y609000D01*
X530794Y611088D01*
X530495Y611809D01*
X554191Y635504D01*
X554912Y635206D01*
X557000Y634931D01*
X559088Y635206D01*
X561035Y636012D01*
X562706Y637294D01*
X563988Y638965D01*
X564794Y640912D01*
X565069Y643000D01*
X564794Y645088D01*
X563988Y647035D01*
X562706Y648706D01*
X561035Y649988D01*
X559088Y650794D01*
X557000Y651069D01*
X554912Y650794D01*
X552966Y649988D01*
X552553Y649671D01*
X551572Y649801D01*
X550009Y650448D01*
X549793Y652087D01*
X548987Y654033D01*
X547705Y655704D01*
X546033Y656987D01*
X544087Y657793D01*
X541999Y658068D01*
X539911Y657793D01*
X537964Y656987D01*
X536293Y655704D01*
X535011Y654033D01*
X534423Y652613D01*
X530230D01*
X529125Y654855D01*
X529547Y655405D01*
X530353Y657351D01*
X530628Y659439D01*
X530353Y661527D01*
X529547Y663474D01*
X528264Y665145D01*
X526593Y666427D01*
X524647Y667233D01*
X522559Y667508D01*
X520574Y667247D01*
X518807Y669015D01*
X519068Y670999D01*
X518793Y673087D01*
X517987Y675033D01*
X516705Y676704D01*
X515033Y677987D01*
X513087Y678793D01*
X510999Y679068D01*
D02*
G37*
G36*
X778930Y632550D02*
X771550D01*
Y625170D01*
X772400Y625282D01*
X774589Y626189D01*
X776469Y627631D01*
X777911Y629511D01*
X778818Y631701D01*
X778930Y632550D01*
D02*
G37*
G36*
X768550Y642930D02*
X767701Y642818D01*
X765511Y641911D01*
X763631Y640469D01*
X762188Y638589D01*
X761282Y636399D01*
X761170Y635550D01*
X768550D01*
Y642930D01*
D02*
G37*
G36*
X533800Y745800D02*
X524907D01*
X525070Y744559D01*
X526128Y742005D01*
X527811Y739811D01*
X530005Y738128D01*
X532559Y737070D01*
X533800Y736907D01*
Y745800D01*
D02*
G37*
G36*
X545693D02*
X536800D01*
Y736907D01*
X538041Y737070D01*
X540595Y738128D01*
X542789Y739811D01*
X544472Y742005D01*
X545530Y744559D01*
X545693Y745800D01*
D02*
G37*
G36*
X418987Y758500D02*
X386500D01*
Y726013D01*
X390335Y726315D01*
X395539Y727564D01*
X400483Y729612D01*
X405047Y732408D01*
X409116Y735884D01*
X412592Y739954D01*
X415388Y744517D01*
X417436Y749461D01*
X418685Y754665D01*
X418987Y758500D01*
D02*
G37*
G36*
X963500D02*
X931013D01*
X931315Y754665D01*
X932564Y749461D01*
X934612Y744517D01*
X937408Y739954D01*
X940884Y735884D01*
X944954Y732408D01*
X949517Y729612D01*
X954461Y727564D01*
X959665Y726315D01*
X963500Y726013D01*
Y758500D01*
D02*
G37*
G36*
X611500Y756882D02*
X609020Y756555D01*
X606709Y755598D01*
X604725Y754075D01*
X603202Y752091D01*
X602244Y749780D01*
X601918Y747300D01*
X602244Y744820D01*
X603202Y742509D01*
X604725Y740525D01*
X606709Y739002D01*
X609020Y738045D01*
X611500Y737718D01*
X613980Y738045D01*
X616291Y739002D01*
X618275Y740525D01*
X619798Y742509D01*
X620756Y744820D01*
X621082Y747300D01*
X620756Y749780D01*
X619798Y752091D01*
X618275Y754075D01*
X616291Y755598D01*
X613980Y756555D01*
X611500Y756882D01*
D02*
G37*
G36*
X533800Y757693D02*
X532559Y757530D01*
X530005Y756472D01*
X527811Y754789D01*
X526128Y752595D01*
X525070Y750041D01*
X524907Y748800D01*
X533800D01*
Y757693D01*
D02*
G37*
G36*
X536800D02*
Y748800D01*
X545693D01*
X545530Y750041D01*
X544472Y752595D01*
X542789Y754789D01*
X540595Y756472D01*
X538041Y757530D01*
X536800Y757693D01*
D02*
G37*
G36*
X890900Y756882D02*
X888420Y756555D01*
X886109Y755598D01*
X884125Y754075D01*
X882602Y752091D01*
X881645Y749780D01*
X881318Y747300D01*
X881645Y744820D01*
X882602Y742509D01*
X884125Y740525D01*
X886109Y739002D01*
X888420Y738045D01*
X890900Y737718D01*
X893380Y738045D01*
X895691Y739002D01*
X897675Y740525D01*
X899198Y742509D01*
X900155Y744820D01*
X900482Y747300D01*
X900155Y749780D01*
X899198Y752091D01*
X897675Y754075D01*
X895691Y755598D01*
X893380Y756555D01*
X890900Y756882D01*
D02*
G37*
G36*
X443200Y756800D02*
X424200D01*
Y737800D01*
X443200D01*
Y756800D01*
D02*
G37*
G36*
X914800Y757693D02*
X913559Y757530D01*
X911005Y756472D01*
X908811Y754789D01*
X907128Y752595D01*
X906070Y750041D01*
X905907Y748800D01*
X914800D01*
Y757693D01*
D02*
G37*
G36*
X917800D02*
Y748800D01*
X926693D01*
X926530Y750041D01*
X925472Y752595D01*
X923789Y754789D01*
X921595Y756472D01*
X919041Y757530D01*
X917800Y757693D01*
D02*
G37*
G36*
X737000D02*
X735759Y757530D01*
X733205Y756472D01*
X731011Y754789D01*
X729328Y752595D01*
X728270Y750041D01*
X728107Y748800D01*
X737000D01*
Y757693D01*
D02*
G37*
G36*
X740000D02*
Y748800D01*
X748893D01*
X748730Y750041D01*
X747672Y752595D01*
X745989Y754789D01*
X743795Y756472D01*
X741241Y757530D01*
X740000Y757693D01*
D02*
G37*
G36*
X865500Y756882D02*
X863020Y756555D01*
X860709Y755598D01*
X858725Y754075D01*
X857202Y752091D01*
X856245Y749780D01*
X855918Y747300D01*
X856245Y744820D01*
X857202Y742509D01*
X858725Y740525D01*
X860709Y739002D01*
X863020Y738045D01*
X865500Y737718D01*
X867980Y738045D01*
X870291Y739002D01*
X872275Y740525D01*
X873798Y742509D01*
X874755Y744820D01*
X875082Y747300D01*
X874755Y749780D01*
X873798Y752091D01*
X872275Y754075D01*
X870291Y755598D01*
X867980Y756555D01*
X865500Y756882D01*
D02*
G37*
G36*
X687700D02*
X685220Y756555D01*
X682909Y755598D01*
X680925Y754075D01*
X679402Y752091D01*
X678445Y749780D01*
X678118Y747300D01*
X678445Y744820D01*
X679402Y742509D01*
X680925Y740525D01*
X682909Y739002D01*
X685220Y738045D01*
X687700Y737718D01*
X690180Y738045D01*
X692491Y739002D01*
X694475Y740525D01*
X695998Y742509D01*
X696955Y744820D01*
X697282Y747300D01*
X696955Y749780D01*
X695998Y752091D01*
X694475Y754075D01*
X692491Y755598D01*
X690180Y756555D01*
X687700Y756882D01*
D02*
G37*
G36*
X713100D02*
X710620Y756555D01*
X708309Y755598D01*
X706324Y754075D01*
X704802Y752091D01*
X703845Y749780D01*
X703518Y747300D01*
X703845Y744820D01*
X704802Y742509D01*
X706324Y740525D01*
X708309Y739002D01*
X710620Y738045D01*
X713100Y737718D01*
X715580Y738045D01*
X717891Y739002D01*
X719875Y740525D01*
X721398Y742509D01*
X722355Y744820D01*
X722682Y747300D01*
X722355Y749780D01*
X721398Y752091D01*
X719875Y754075D01*
X717891Y755598D01*
X715580Y756555D01*
X713100Y756882D01*
D02*
G37*
G36*
X636900D02*
X634420Y756555D01*
X632109Y755598D01*
X630125Y754075D01*
X628602Y752091D01*
X627645Y749780D01*
X627318Y747300D01*
X627645Y744820D01*
X628602Y742509D01*
X630125Y740525D01*
X632109Y739002D01*
X634420Y738045D01*
X636900Y737718D01*
X639380Y738045D01*
X641691Y739002D01*
X643675Y740525D01*
X645198Y742509D01*
X646155Y744820D01*
X646482Y747300D01*
X646155Y749780D01*
X645198Y752091D01*
X643675Y754075D01*
X641691Y755598D01*
X639380Y756555D01*
X636900Y756882D01*
D02*
G37*
G36*
X662300D02*
X659820Y756555D01*
X657509Y755598D01*
X655525Y754075D01*
X654002Y752091D01*
X653045Y749780D01*
X652718Y747300D01*
X653045Y744820D01*
X654002Y742509D01*
X655525Y740525D01*
X657509Y739002D01*
X659820Y738045D01*
X662300Y737718D01*
X664780Y738045D01*
X667091Y739002D01*
X669075Y740525D01*
X670598Y742509D01*
X671555Y744820D01*
X671882Y747300D01*
X671555Y749780D01*
X670598Y752091D01*
X669075Y754075D01*
X667091Y755598D01*
X664780Y756555D01*
X662300Y756882D01*
D02*
G37*
G36*
X814700D02*
X812220Y756555D01*
X809909Y755598D01*
X807924Y754075D01*
X806402Y752091D01*
X805444Y749780D01*
X805118Y747300D01*
X805444Y744820D01*
X806402Y742509D01*
X807924Y740525D01*
X809909Y739002D01*
X812220Y738045D01*
X814700Y737718D01*
X817180Y738045D01*
X819491Y739002D01*
X821475Y740525D01*
X822998Y742509D01*
X823956Y744820D01*
X824282Y747300D01*
X823956Y749780D01*
X822998Y752091D01*
X821475Y754075D01*
X819491Y755598D01*
X817180Y756555D01*
X814700Y756882D01*
D02*
G37*
G36*
X840100D02*
X837620Y756555D01*
X835309Y755598D01*
X833325Y754075D01*
X831802Y752091D01*
X830844Y749780D01*
X830518Y747300D01*
X830844Y744820D01*
X831802Y742509D01*
X833325Y740525D01*
X835309Y739002D01*
X837620Y738045D01*
X840100Y737718D01*
X842580Y738045D01*
X844891Y739002D01*
X846875Y740525D01*
X848398Y742509D01*
X849355Y744820D01*
X849682Y747300D01*
X849355Y749780D01*
X848398Y752091D01*
X846875Y754075D01*
X844891Y755598D01*
X842580Y756555D01*
X840100Y756882D01*
D02*
G37*
G36*
X763900D02*
X761420Y756555D01*
X759109Y755598D01*
X757124Y754075D01*
X755602Y752091D01*
X754644Y749780D01*
X754318Y747300D01*
X754644Y744820D01*
X755602Y742509D01*
X757124Y740525D01*
X759109Y739002D01*
X761420Y738045D01*
X763900Y737718D01*
X766380Y738045D01*
X768691Y739002D01*
X770675Y740525D01*
X772198Y742509D01*
X773156Y744820D01*
X773482Y747300D01*
X773156Y749780D01*
X772198Y752091D01*
X770675Y754075D01*
X768691Y755598D01*
X766380Y756555D01*
X763900Y756882D01*
D02*
G37*
G36*
X789300D02*
X786820Y756555D01*
X784509Y755598D01*
X782524Y754075D01*
X781002Y752091D01*
X780044Y749780D01*
X779718Y747300D01*
X780044Y744820D01*
X781002Y742509D01*
X782524Y740525D01*
X784509Y739002D01*
X786820Y738045D01*
X789300Y737718D01*
X791780Y738045D01*
X794091Y739002D01*
X796075Y740525D01*
X797598Y742509D01*
X798556Y744820D01*
X798882Y747300D01*
X798556Y749780D01*
X797598Y752091D01*
X796075Y754075D01*
X794091Y755598D01*
X791780Y756555D01*
X789300Y756882D01*
D02*
G37*
%LPD*%
D23*
X395000Y583500D02*
X446619D01*
X377300D02*
X395000D01*
X377300Y456500D02*
X390500D01*
X395000Y461000D01*
Y583500D01*
X446619D02*
X522559Y659439D01*
X691999Y609999D02*
Y640999D01*
D24*
X489999Y643999D02*
X501000Y655000D01*
X507000D01*
X510999Y658999D01*
Y670999D01*
X461500Y489000D02*
Y588500D01*
X522299Y649299D01*
X541299D01*
X541999Y649999D01*
X656999Y529999D02*
X657139Y530139D01*
X689859D01*
X713999Y505999D01*
X668999Y519999D02*
X683817D01*
X733000Y470816D01*
X759000Y374000D02*
X852000D01*
X461500Y457500D02*
Y489000D01*
X435000Y431000D02*
X461500Y457500D01*
X523000Y609000D02*
X554000Y640000D01*
X769000Y633000D02*
X770050Y634050D01*
X667000Y499000D02*
X669999Y496001D01*
Y495999D02*
Y496001D01*
X733000Y408000D02*
Y470816D01*
D25*
X916300Y772700D02*
D03*
Y747300D02*
D03*
X890900Y772700D02*
D03*
Y747300D02*
D03*
X865500Y772700D02*
D03*
Y747300D02*
D03*
X840100Y772700D02*
D03*
Y747300D02*
D03*
X814700Y772700D02*
D03*
Y747300D02*
D03*
X789300Y772700D02*
D03*
Y747300D02*
D03*
X763900Y772700D02*
D03*
Y747300D02*
D03*
X738500Y772700D02*
D03*
Y747300D02*
D03*
X713100Y772700D02*
D03*
Y747300D02*
D03*
X687700Y772700D02*
D03*
Y747300D02*
D03*
X662300Y772700D02*
D03*
Y747300D02*
D03*
X636900Y772700D02*
D03*
Y747300D02*
D03*
X611500Y772700D02*
D03*
Y747300D02*
D03*
X586100Y772700D02*
D03*
Y747300D02*
D03*
X560700Y772700D02*
D03*
Y747300D02*
D03*
X535300Y772700D02*
D03*
Y747300D02*
D03*
X509900Y772700D02*
D03*
Y747300D02*
D03*
X484500Y772700D02*
D03*
Y747300D02*
D03*
X459100Y772700D02*
D03*
Y747300D02*
D03*
X433700Y772700D02*
D03*
X819700Y262300D02*
D03*
X845100D02*
D03*
X870500D02*
D03*
X718100D02*
D03*
X743500D02*
D03*
X768900D02*
D03*
X616500D02*
D03*
X641900D02*
D03*
X667300D02*
D03*
X514900D02*
D03*
X540300D02*
D03*
X565700D02*
D03*
D26*
X433700Y747300D02*
D03*
X794300Y262300D02*
D03*
X692700D02*
D03*
X591100D02*
D03*
X489500D02*
D03*
D27*
X923000Y562000D02*
D03*
X892500Y611000D02*
D03*
D28*
X863000Y562000D02*
D03*
D29*
X377300Y481900D02*
D03*
Y507300D02*
D03*
Y431100D02*
D03*
Y558100D02*
D03*
Y583500D02*
D03*
D30*
Y532700D02*
D03*
Y456500D02*
D03*
Y608900D02*
D03*
D31*
X965000Y760000D02*
D03*
X385000D02*
D03*
X965000Y270000D02*
D03*
X385000D02*
D03*
D32*
X510999Y670999D02*
D03*
X489999Y643999D02*
D03*
X522559Y659439D02*
D03*
X541999Y649999D02*
D03*
X713999Y505999D02*
D03*
X656999Y529999D02*
D03*
X668999Y519999D02*
D03*
X691999Y640999D02*
D03*
Y609999D02*
D03*
X852000Y374000D02*
D03*
X762000D02*
D03*
X776000Y564000D02*
D03*
X435000Y431000D02*
D03*
X557000Y643000D02*
D03*
X523000Y609000D02*
D03*
X703000Y377000D02*
D03*
X770050Y634050D02*
D03*
X669999Y495999D02*
D03*
X733000Y408000D02*
D03*
X705000Y601000D02*
D03*
X439000Y558000D02*
D03*
M02*
