%FSLAX44Y44*%
%MOMM*%
G71*
G01*
G75*
G04 Layer_Color=65535*
%ADD10R,0.9000X0.7000*%
%ADD11R,0.6500X1.1000*%
%ADD12O,0.6000X2.2000*%
%ADD13R,0.8000X0.9000*%
%ADD14R,0.7000X0.9000*%
%ADD15O,0.6000X1.9000*%
%ADD16R,0.6000X1.1500*%
%ADD17R,1.1500X0.6000*%
%ADD18R,0.9000X0.8000*%
G04:AMPARAMS|DCode=19|XSize=1.9mm|YSize=3.2mm|CornerRadius=0mm|HoleSize=0mm|Usage=FLASHONLY|Rotation=90.000|XOffset=0mm|YOffset=0mm|HoleType=Round|Shape=Octagon|*
%AMOCTAGOND19*
4,1,8,-1.6000,-0.4750,-1.6000,0.4750,-1.1250,0.9500,1.1250,0.9500,1.6000,0.4750,1.6000,-0.4750,1.1250,-0.9500,-1.1250,-0.9500,-1.6000,-0.4750,0.0*
%
%ADD19OCTAGOND19*%

%ADD20R,1.4000X0.6000*%
%ADD21R,1.8000X0.6000*%
%ADD22R,1.2000X1.4000*%
%ADD23C,0.5000*%
%ADD24C,0.2500*%
%ADD25C,1.5000*%
%ADD26R,1.5000X1.5000*%
%ADD27O,4.0000X5.0000*%
%ADD28O,4.5000X5.5000*%
%ADD29C,1.7000*%
%ADD30R,1.7000X1.7000*%
%ADD31C,6.2000*%
%ADD32C,1.2000*%
%ADD33C,0.2000*%
%ADD34C,0.3000*%
D24*
X831500Y545000D02*
G03*
X831500Y545000I-1250J0D01*
G01*
X630650Y426000D02*
G03*
X630650Y426000I-1250J0D01*
G01*
X704700Y301500D02*
G03*
X704700Y301500I-1250J0D01*
G01*
X602700D02*
G03*
X602700Y301500I-1250J0D01*
G01*
X501700D02*
G03*
X501700Y301500I-1250J0D01*
G01*
X439250Y448250D02*
G03*
X439250Y448250I-1250J0D01*
G01*
X414000Y517000D02*
G03*
X414000Y517000I-1250J0D01*
G01*
X806700Y301500D02*
G03*
X806700Y301500I-1250J0D01*
G01*
X831500Y586000D02*
G03*
X831500Y586000I-1250J0D01*
G01*
X723750Y556500D02*
G03*
X723750Y556500I-1250J0D01*
G01*
X724700Y654000D02*
G03*
X724700Y654000I-1250J0D01*
G01*
X863000Y597000D02*
Y611000D01*
X865000D01*
X863000Y513000D02*
Y527000D01*
Y513000D02*
X1000000D01*
Y587000D01*
X920000Y611000D02*
X1000000D01*
Y587000D02*
Y611000D01*
D33*
X794500Y323000D02*
Y327000D01*
X801500Y323000D02*
Y327000D01*
X421000Y734600D02*
X929000D01*
X421000Y785400D02*
X929000D01*
X421000Y734600D02*
Y785400D01*
X929000Y734600D02*
Y785400D01*
X827500Y530500D02*
Y535500D01*
X796500Y530500D02*
Y535500D01*
X827500D01*
X796500Y530500D02*
X827500D01*
X720000Y441000D02*
Y459000D01*
X632000Y441000D02*
Y459000D01*
X720000D01*
X632000Y441000D02*
X720000D01*
X681000Y393500D02*
X685000D01*
X681000Y386500D02*
X685000D01*
X681000Y372500D02*
X685000D01*
X681000Y379500D02*
X685000D01*
X756000Y315000D02*
Y335000D01*
X706000Y315000D02*
Y335000D01*
X756000D01*
X706000Y315000D02*
X756000D01*
X692500Y323000D02*
Y327000D01*
X699500Y323000D02*
Y327000D01*
X654000Y315000D02*
Y335000D01*
X604000Y315000D02*
Y335000D01*
X654000D01*
X604000Y315000D02*
X654000D01*
X590500Y323000D02*
Y327000D01*
X597500Y323000D02*
Y327000D01*
X883200Y249600D02*
Y275000D01*
X781600Y249600D02*
X883200D01*
X781600Y275000D02*
X883200D01*
X781600Y249600D02*
Y275000D01*
Y249600D02*
Y275000D01*
X680000Y249600D02*
X781600D01*
X680000Y275000D02*
X781600D01*
X680000Y249600D02*
Y275000D01*
Y249600D02*
Y275000D01*
X578400Y249600D02*
X680000D01*
X578400Y275000D02*
X680000D01*
X578400Y249600D02*
Y275000D01*
X553000Y315000D02*
Y335000D01*
X503000Y315000D02*
Y335000D01*
X553000D01*
X503000Y315000D02*
X553000D01*
X489500Y323000D02*
Y327000D01*
X496500Y323000D02*
Y327000D01*
X578400Y249600D02*
Y275000D01*
X476800Y249600D02*
X578400D01*
X476800Y275000D02*
X578400D01*
X476800Y249600D02*
Y275000D01*
X364600Y545400D02*
X390000D01*
Y469200D02*
Y545400D01*
X364600Y469200D02*
X390000D01*
X364600D02*
Y545400D01*
X390000Y418400D02*
Y469200D01*
X364600D02*
X390000D01*
X364600Y418400D02*
Y469200D01*
Y418400D02*
X390000D01*
X418000Y554500D02*
X422000D01*
X418000Y561500D02*
X422000D01*
X364600Y621600D02*
X390000D01*
Y545400D02*
Y621600D01*
X364600Y545400D02*
X390000D01*
X364600D02*
Y621600D01*
X405000Y430000D02*
X413000D01*
X405000D02*
Y439000D01*
X427000Y430000D02*
X435000D01*
Y439000D01*
X457000Y487500D02*
X461000D01*
X457000Y480500D02*
X461000D01*
X418000Y470500D02*
X422000D01*
X418000Y463500D02*
X422000D01*
X418000Y533500D02*
X422000D01*
X418000Y540500D02*
X422000D01*
X418000Y519500D02*
X422000D01*
X418000Y526500D02*
X422000D01*
X431000Y484000D02*
Y492000D01*
X422000Y484000D02*
X431000D01*
Y506000D02*
Y514000D01*
X422000D02*
X431000D01*
X858000Y315000D02*
Y335000D01*
X808000Y315000D02*
Y335000D01*
X858000D01*
X808000Y315000D02*
X858000D01*
X783500Y547000D02*
Y551000D01*
X790500Y547000D02*
Y551000D01*
X790500Y577000D02*
Y581000D01*
X783500Y577000D02*
Y581000D01*
X827500Y571500D02*
Y576500D01*
X796500Y571500D02*
Y576500D01*
X827500D01*
X796500Y571500D02*
X827500D01*
X755000Y510000D02*
Y519500D01*
X729000Y510000D02*
X755000D01*
Y546500D02*
Y556000D01*
X729000D02*
X755000D01*
X743000Y566000D02*
Y578000D01*
X776000Y669000D02*
Y687000D01*
X726000Y669000D02*
Y687000D01*
X776000D01*
X726000Y669000D02*
X776000D01*
X790000Y313000D02*
X780003D01*
Y317998D01*
X781669Y319664D01*
X785002D01*
X786668Y317998D01*
Y313000D01*
Y316332D02*
X790000Y319664D01*
Y322997D02*
Y326329D01*
Y324663D01*
X780003D01*
X781669Y322997D01*
Y331327D02*
X780003Y332994D01*
Y336326D01*
X781669Y337992D01*
X783335D01*
X785002Y336326D01*
Y334660D01*
Y336326D01*
X786668Y337992D01*
X788334D01*
X790000Y336326D01*
Y332994D01*
X788334Y331327D01*
X851665Y610997D02*
X848332D01*
X849998D01*
Y602666D01*
X848332Y601000D01*
X846666D01*
X845000Y602666D01*
X854997Y601000D02*
X858329D01*
X856663D01*
Y610997D01*
X854997Y609331D01*
X812664Y503666D02*
Y510331D01*
X810998Y511997D01*
X807666D01*
X806000Y510331D01*
Y503666D01*
X807666Y502000D01*
X810998D01*
X809332Y505332D02*
X812664Y502000D01*
X810998D02*
X812664Y503666D01*
X815997Y502000D02*
X819329D01*
X817663D01*
Y511997D01*
X815997Y510331D01*
X617003Y442000D02*
X625334D01*
X627000Y443666D01*
Y446998D01*
X625334Y448665D01*
X617003D01*
X627000Y458661D02*
Y451997D01*
X620336Y458661D01*
X618669D01*
X617003Y456995D01*
Y453663D01*
X618669Y451997D01*
X658664Y407331D02*
X656998Y408997D01*
X653666D01*
X652000Y407331D01*
Y400666D01*
X653666Y399000D01*
X656998D01*
X658664Y400666D01*
X666995Y399000D02*
Y408997D01*
X661997Y403998D01*
X668661D01*
X652000Y385000D02*
Y394997D01*
X656998D01*
X658664Y393331D01*
Y389998D01*
X656998Y388332D01*
X652000D01*
X655332D02*
X658664Y385000D01*
X668661D02*
X661997D01*
X668661Y391665D01*
Y393331D01*
X666995Y394997D01*
X663663D01*
X661997Y393331D01*
X652000Y371000D02*
Y380997D01*
X656998D01*
X658664Y379331D01*
Y375998D01*
X656998Y374332D01*
X652000D01*
X655332D02*
X658664Y371000D01*
X661997D02*
X665329D01*
X663663D01*
Y380997D01*
X661997Y379331D01*
X760003Y317000D02*
X768334D01*
X770000Y318666D01*
Y321998D01*
X768334Y323665D01*
X760003D01*
Y333661D02*
Y326997D01*
X765002D01*
X763335Y330329D01*
Y331995D01*
X765002Y333661D01*
X768334D01*
X770000Y331995D01*
Y328663D01*
X768334Y326997D01*
X688000Y314000D02*
X678003D01*
Y318998D01*
X679669Y320664D01*
X683002D01*
X684668Y318998D01*
Y314000D01*
Y317332D02*
X688000Y320664D01*
Y323997D02*
Y327329D01*
Y325663D01*
X678003D01*
X679669Y323997D01*
X688000Y332327D02*
Y335660D01*
Y333994D01*
X678003D01*
X679669Y332327D01*
X658003Y317000D02*
X666334D01*
X668000Y318666D01*
Y321998D01*
X666334Y323665D01*
X658003D01*
Y333661D02*
X659669Y330329D01*
X663002Y326997D01*
X666334D01*
X668000Y328663D01*
Y331995D01*
X666334Y333661D01*
X664668D01*
X663002Y331995D01*
Y326997D01*
X586000Y314000D02*
X576003D01*
Y318998D01*
X577669Y320664D01*
X581002D01*
X582668Y318998D01*
Y314000D01*
Y317332D02*
X586000Y320664D01*
Y323997D02*
Y327329D01*
Y325663D01*
X576003D01*
X577669Y323997D01*
X586000Y338992D02*
Y332327D01*
X579336Y338992D01*
X577669D01*
X576003Y337326D01*
Y333994D01*
X577669Y332327D01*
X782000Y279000D02*
Y288997D01*
X786998D01*
X788664Y287331D01*
Y283998D01*
X786998Y282332D01*
X782000D01*
X791997Y280666D02*
X793663Y279000D01*
X796995D01*
X798661Y280666D01*
Y287331D01*
X796995Y288997D01*
X793663D01*
X791997Y287331D01*
Y285665D01*
X793663Y283998D01*
X798661D01*
X681000Y279000D02*
Y288997D01*
X685998D01*
X687664Y287331D01*
Y283998D01*
X685998Y282332D01*
X681000D01*
X690997Y288997D02*
X697661D01*
Y287331D01*
X690997Y280666D01*
Y279000D01*
X579000D02*
Y288997D01*
X583998D01*
X585664Y287331D01*
Y283998D01*
X583998Y282332D01*
X579000D01*
X588997Y287331D02*
X590663Y288997D01*
X593995D01*
X595661Y287331D01*
Y285665D01*
X593995Y283998D01*
X595661Y282332D01*
Y280666D01*
X593995Y279000D01*
X590663D01*
X588997Y280666D01*
Y282332D01*
X590663Y283998D01*
X588997Y285665D01*
Y287331D01*
X590663Y283998D02*
X593995D01*
X557003Y317000D02*
X565334D01*
X567000Y318666D01*
Y321998D01*
X565334Y323665D01*
X557003D01*
X567000Y331995D02*
X557003D01*
X562002Y326997D01*
Y333661D01*
X484000Y313000D02*
X474003D01*
Y317998D01*
X475669Y319664D01*
X479002D01*
X480668Y317998D01*
Y313000D01*
Y316332D02*
X484000Y319664D01*
Y322997D02*
Y326329D01*
Y324663D01*
X474003D01*
X475669Y322997D01*
Y331327D02*
X474003Y332994D01*
Y336326D01*
X475669Y337992D01*
X482334D01*
X484000Y336326D01*
Y332994D01*
X482334Y331327D01*
X475669D01*
X477000Y279000D02*
Y288997D01*
X481998D01*
X483665Y287331D01*
Y283998D01*
X481998Y282332D01*
X477000D01*
X493661Y288997D02*
X490329Y287331D01*
X486997Y283998D01*
Y280666D01*
X488663Y279000D01*
X491995D01*
X493661Y280666D01*
Y282332D01*
X491995Y283998D01*
X486997D01*
X421000Y720000D02*
Y729997D01*
X425998D01*
X427664Y728331D01*
Y724998D01*
X425998Y723332D01*
X421000D01*
X437661Y720000D02*
X430997D01*
X437661Y726665D01*
Y728331D01*
X435995Y729997D01*
X432663D01*
X430997Y728331D01*
X404000Y528000D02*
X394003D01*
Y532998D01*
X395669Y534664D01*
X399002D01*
X400668Y532998D01*
Y528000D01*
X404000Y542995D02*
X394003D01*
X399002Y537997D01*
Y544661D01*
X365000Y404000D02*
Y413997D01*
X369998D01*
X371665Y412331D01*
Y408998D01*
X369998Y407332D01*
X365000D01*
X374997Y412331D02*
X376663Y413997D01*
X379995D01*
X381661Y412331D01*
Y410664D01*
X379995Y408998D01*
X378329D01*
X379995D01*
X381661Y407332D01*
Y405666D01*
X379995Y404000D01*
X376663D01*
X374997Y405666D01*
X410000Y566000D02*
Y575997D01*
X414998D01*
X416665Y574331D01*
Y570998D01*
X414998Y569332D01*
X410000D01*
X413332D02*
X416665Y566000D01*
X419997Y575997D02*
X426661D01*
Y574331D01*
X419997Y567666D01*
Y566000D01*
X365000Y627000D02*
Y636997D01*
X369998D01*
X371665Y635331D01*
Y631998D01*
X369998Y630332D01*
X365000D01*
X381661Y636997D02*
X374997D01*
Y631998D01*
X378329Y633665D01*
X379995D01*
X381661Y631998D01*
Y628666D01*
X379995Y627000D01*
X376663D01*
X374997Y628666D01*
X403665Y417666D02*
Y424331D01*
X401998Y425997D01*
X398666D01*
X397000Y424331D01*
Y417666D01*
X398666Y416000D01*
X401998D01*
X400332Y419332D02*
X403665Y416000D01*
X401998D02*
X403665Y417666D01*
X411995Y416000D02*
Y425997D01*
X406997Y420998D01*
X413661D01*
X714665Y575331D02*
X712998Y576997D01*
X709666D01*
X708000Y575331D01*
Y568666D01*
X709666Y567000D01*
X712998D01*
X714665Y568666D01*
X717997Y567000D02*
X721329D01*
X719663D01*
Y576997D01*
X717997Y575331D01*
X714665Y590331D02*
X712998Y591997D01*
X709666D01*
X708000Y590331D01*
Y583666D01*
X709666Y582000D01*
X712998D01*
X714665Y583666D01*
X724661Y582000D02*
X717997D01*
X724661Y588665D01*
Y590331D01*
X722995Y591997D01*
X719663D01*
X717997Y590331D01*
X687669Y530664D02*
X686003Y528998D01*
Y525666D01*
X687669Y524000D01*
X694334D01*
X696000Y525666D01*
Y528998D01*
X694334Y530664D01*
X687669Y533997D02*
X686003Y535663D01*
Y538995D01*
X687669Y540661D01*
X689335D01*
X691002Y538995D01*
Y537329D01*
Y538995D01*
X692668Y540661D01*
X694334D01*
X696000Y538995D01*
Y535663D01*
X694334Y533997D01*
X734120Y745359D02*
X732454Y747025D01*
X729122D01*
X727456Y745359D01*
Y738694D01*
X729122Y737028D01*
X732454D01*
X734120Y738694D01*
X744117Y747025D02*
X737453D01*
Y742026D01*
X740785Y743692D01*
X742451D01*
X744117Y742026D01*
Y738694D01*
X742451Y737028D01*
X739119D01*
X737453Y738694D01*
X732664Y393331D02*
X730998Y394997D01*
X727666D01*
X726000Y393331D01*
Y386666D01*
X727666Y385000D01*
X730998D01*
X732664Y386666D01*
X742661Y394997D02*
X739329Y393331D01*
X735997Y389998D01*
Y386666D01*
X737663Y385000D01*
X740995D01*
X742661Y386666D01*
Y388332D01*
X740995Y389998D01*
X735997D01*
X477000Y502997D02*
Y493000D01*
X481998D01*
X483665Y494666D01*
Y501331D01*
X481998Y502997D01*
X477000D01*
X486997Y493000D02*
X490329D01*
X488663D01*
Y502997D01*
X486997Y501331D01*
X810665Y597666D02*
Y604331D01*
X808998Y605997D01*
X805666D01*
X804000Y604331D01*
Y597666D01*
X805666Y596000D01*
X808998D01*
X807332Y599332D02*
X810665Y596000D01*
X808998D02*
X810665Y597666D01*
X820661Y596000D02*
X813997D01*
X820661Y602664D01*
Y604331D01*
X818995Y605997D01*
X815663D01*
X813997Y604331D01*
X442664Y508666D02*
Y515331D01*
X440998Y516997D01*
X437666D01*
X436000Y515331D01*
Y508666D01*
X437666Y507000D01*
X440998D01*
X439332Y510332D02*
X442664Y507000D01*
X440998D02*
X442664Y508666D01*
X445997Y515331D02*
X447663Y516997D01*
X450995D01*
X452661Y515331D01*
Y513665D01*
X450995Y511998D01*
X449329D01*
X450995D01*
X452661Y510332D01*
Y508666D01*
X450995Y507000D01*
X447663D01*
X445997Y508666D01*
X477000Y479000D02*
Y488997D01*
X481998D01*
X483665Y487331D01*
Y483998D01*
X481998Y482332D01*
X477000D01*
X480332D02*
X483665Y479000D01*
X486997Y487331D02*
X488663Y488997D01*
X491995D01*
X493661Y487331D01*
Y485664D01*
X491995Y483998D01*
X490329D01*
X491995D01*
X493661Y482332D01*
Y480666D01*
X491995Y479000D01*
X488663D01*
X486997Y480666D01*
X779000Y576000D02*
X769003D01*
Y580998D01*
X770669Y582664D01*
X774002D01*
X775668Y580998D01*
Y576000D01*
Y579332D02*
X779000Y582664D01*
Y590995D02*
X769003D01*
X774002Y585997D01*
Y592661D01*
X792000Y514000D02*
X782003D01*
Y518998D01*
X783669Y520664D01*
X787002D01*
X788668Y518998D01*
Y514000D01*
Y517332D02*
X792000Y520664D01*
X782003Y530661D02*
Y523997D01*
X787002D01*
X785335Y527329D01*
Y528995D01*
X787002Y530661D01*
X790334D01*
X792000Y528995D01*
Y525663D01*
X790334Y523997D01*
X436000Y521000D02*
Y530997D01*
X440998D01*
X442664Y529331D01*
Y525998D01*
X440998Y524332D01*
X436000D01*
X439332D02*
X442664Y521000D01*
X452661Y530997D02*
X449329Y529331D01*
X445997Y525998D01*
Y522666D01*
X447663Y521000D01*
X450995D01*
X452661Y522666D01*
Y524332D01*
X450995Y525998D01*
X445997D01*
X435000Y462000D02*
Y471997D01*
X439998D01*
X441665Y470331D01*
Y466998D01*
X439998Y465332D01*
X435000D01*
X438332D02*
X441665Y462000D01*
X444997Y470331D02*
X446663Y471997D01*
X449995D01*
X451661Y470331D01*
Y468665D01*
X449995Y466998D01*
X451661Y465332D01*
Y463666D01*
X449995Y462000D01*
X446663D01*
X444997Y463666D01*
Y465332D01*
X446663Y466998D01*
X444997Y468665D01*
Y470331D01*
X446663Y466998D02*
X449995D01*
X436000Y535000D02*
Y544997D01*
X440998D01*
X442664Y543331D01*
Y539998D01*
X440998Y538332D01*
X436000D01*
X439332D02*
X442664Y535000D01*
X445997Y536666D02*
X447663Y535000D01*
X450995D01*
X452661Y536666D01*
Y543331D01*
X450995Y544997D01*
X447663D01*
X445997Y543331D01*
Y541665D01*
X447663Y539998D01*
X452661D01*
X742000Y504997D02*
Y496666D01*
X743666Y495000D01*
X746998D01*
X748664Y496666D01*
Y504997D01*
X751997Y495000D02*
X755329D01*
X753663D01*
Y504997D01*
X751997Y503331D01*
X781000Y681997D02*
Y673666D01*
X782666Y672000D01*
X785998D01*
X787664Y673666D01*
Y681997D01*
X790997Y680331D02*
X792663Y681997D01*
X795995D01*
X797661Y680331D01*
Y678664D01*
X795995Y676998D01*
X794329D01*
X795995D01*
X797661Y675332D01*
Y673666D01*
X795995Y672000D01*
X792663D01*
X790997Y673666D01*
X804962Y376519D02*
Y368188D01*
X806628Y366522D01*
X809960D01*
X811627Y368188D01*
Y376519D01*
X814959D02*
X821623D01*
Y374853D01*
X814959Y368188D01*
Y366522D01*
D34*
X810000Y454994D02*
Y441665D01*
X816665Y435000D01*
X823329Y441665D01*
Y454994D01*
X829994Y435000D02*
X836658D01*
X833326D01*
Y454994D01*
X829994Y451661D01*
X846655Y435000D02*
Y438332D01*
X849987D01*
Y435000D01*
X846655D01*
X863316Y451661D02*
X866648Y454994D01*
X873313D01*
X876645Y451661D01*
Y438332D01*
X873313Y435000D01*
X866648D01*
X863316Y438332D01*
Y451661D01*
X823329Y481661D02*
X819997Y484994D01*
X813332D01*
X810000Y481661D01*
Y468332D01*
X813332Y465000D01*
X819997D01*
X823329Y468332D01*
X833326Y478329D02*
X839990D01*
X843323Y474997D01*
Y465000D01*
X833326D01*
X829994Y468332D01*
X833326Y471665D01*
X843323D01*
X853319Y481661D02*
Y478329D01*
X849987D01*
X856652D01*
X853319D01*
Y468332D01*
X856652Y465000D01*
X869981Y481661D02*
Y478329D01*
X866648D01*
X873313D01*
X869981D01*
Y468332D01*
X873313Y465000D01*
X903303Y484994D02*
X909968D01*
X906636D01*
Y465000D01*
X903303D01*
X909968D01*
X919965D02*
X933294Y478329D01*
X949955Y484994D02*
X943290D01*
X939958Y481661D01*
Y468332D01*
X943290Y465000D01*
X949955D01*
X953287Y468332D01*
Y481661D01*
X949955Y484994D01*
M02*
