M48
;Layer_Color=9474304
;FILE_FORMAT=4:4
METRIC,LZ
;TYPE=PLATED
T1F00S00C0.7000
T2F00S00C0.9000
T3F00S00C1.1000
T4F00S00C2.7500
T5F00S00C3.0000
T6F00S00C3.5000
%
T01
X00703Y00377
X00762Y00374
X00852
X00733Y00408
X00713999Y00505999
X00669999Y00495999
X00668999Y00519999
X00656999Y00529999
X00691999Y00609999
X00705Y00601
X00691999Y00640999
X0077005Y0063405
X00776Y00564
X00523Y00609
X00522559Y00659439
X00510999Y00670999
X00489999Y00643999
X00541999Y00649999
X00557Y00643
X00439Y00558
X00435Y00431
T02
X004895Y002623
X005149
X005403
X005657
X005911
X006165
X006419
X006673
X006927
X007181
X007435
X007689
X007943
X008197
X008451
X008705
X008655Y007473
X008909
X009163
Y007727
X008909
X008655
X008401
Y007473
X008147
Y007727
X007893
Y007473
X007639
Y007727
X007385
Y007473
X007131
Y007727
X006877
Y007473
X006623
Y007727
X006369
Y007473
X006115
Y007727
X005861
Y007473
X005607
Y007727
X005353
Y007473
X005099
Y007727
X004845
Y007473
X004591
Y007727
X004337
Y007473
T03
X003773Y004311
Y004565
Y004819
Y005073
Y005327
Y005581
Y005835
Y006089
T04
X00385Y0027
X00965
Y0076
X00385
T05
X00923Y00562
X008925Y00611
T06
X00863Y00562
M30
